<?xml version="1.0" standalone="no"?>
<!DOCTYPE svg PUBLIC "-//W3C//DTD SVG 1.1//EN" "http://www.w3.org/Graphics/SVG/1.1/DTD/svg11.dtd" >
<svg xmlns="http://www.w3.org/2000/svg" xmlns:xlink="http://www.w3.org/1999/xlink" version="1.1">
<metadata>
Created by FontForge 20190801 at Thu Nov 13 21:36:47 2014
 By Jimmy Wärting
Copyright (c) 2014 by atipo. All rights reserved.
</metadata>
<defs>
<font id="Geomanist-Black" horiz-adv-x="282" >
  <font-face 
    font-family="Geomanist Black"
    font-weight="900"
    font-stretch="normal"
    units-per-em="1000"
    panose-1="2 0 5 3 4 0 0 2 0 4"
    ascent="750"
    descent="-250"
    x-height="528"
    cap-height="700"
    bbox="-56 -340 1264 1029"
    underline-thickness="50"
    underline-position="-100"
    stemh="167"
    stemv="195"
    unicode-range="U+0020-F6C3"
  />
<missing-glyph horiz-adv-x="508" 
d="M4 0v700h500v-700h-500zM254 395l170 255h-340zM284 350l170 -255v510zM54 95l170 255l-170 255v-510zM84 50h340l-170 255z" />
    <glyph glyph-name="ellipsis" unicode="&#x2e;&#x2e;&#x2e;" horiz-adv-x="898" 
d="M26 97c0 62 48 112 113 112s113 -50 113 -112c0 -60 -48 -110 -113 -110s-113 50 -113 110zM336 97c0 62 48 112 113 112s113 -50 113 -112c0 -60 -48 -110 -113 -110s-113 50 -113 110zM646 97c0 62 48 112 113 112s113 -50 113 -112c0 -60 -48 -110 -113 -110
s-113 50 -113 110z" />
    <glyph glyph-name=".notdef" horiz-adv-x="508" 
d="M4 0v700h500v-700h-500zM254 395l170 255h-340zM284 350l170 -255v510zM54 95l170 255l-170 255v-510zM84 50h340l-170 255z" />
    <glyph glyph-name="space" unicode=" " horiz-adv-x="200" 
 />
    <glyph glyph-name="numbersign" unicode="#" horiz-adv-x="682" 
d="M70 0l35 165h-83l29 140h84l18 89h-83l29 140h84l35 166h159l-35 -166h81l36 166h159l-36 -166h78l-29 -140h-78l-19 -89h78l-29 -140h-78l-35 -165h-159l35 165h-82l-35 -165h-159zM294 305h81l19 89h-83z" />
    <glyph glyph-name="percent" unicode="%" horiz-adv-x="864" 
d="M71 0l537 700h185l-537 -700h-185zM205 358c-110 0 -188 75 -188 177c0 99 80 178 187 178c111 0 190 -79 190 -178c0 -101 -79 -177 -189 -177zM205 489c30 0 47 21 47 47c0 24 -19 44 -46 44c-29 0 -47 -21 -47 -44c0 -27 21 -47 46 -47zM468 164c0 99 80 178 188 178
c110 0 190 -79 190 -178c0 -100 -80 -177 -189 -177c-110 0 -189 76 -189 177zM611 165c0 -26 19 -46 45 -46c29 0 48 21 48 46s-21 45 -47 45c-29 0 -46 -21 -46 -45z" />
    <glyph glyph-name="quotesingle" unicode="'" horiz-adv-x="233" 
d="M45 427l-5 273h153l-5 -273h-143z" />
    <glyph glyph-name="parenleft" unicode="(" horiz-adv-x="368" 
d="M27 50v537c0 164 117 247 283 247v-164c-67 0 -92 -32 -92 -83v-537c0 -51 25 -83 92 -83v-164c-166 0 -283 83 -283 247z" />
    <glyph glyph-name="parenright" unicode=")" horiz-adv-x="369" 
d="M341 587v-537c0 -164 -117 -247 -283 -247v164c67 0 92 32 92 83v537c0 51 -25 83 -92 83v164c166 0 283 -83 283 -247z" />
    <glyph glyph-name="asterisk" unicode="*" horiz-adv-x="448" 
d="M24 551l64 104l74 -38v83h126v-83l73 38l62 -104l-72 -39l73 -37l-63 -105l-73 40v-85h-126v84l-74 -39l-64 104l75 39z" />
    <glyph glyph-name="plus" unicode="+" horiz-adv-x="562" 
d="M34 237v150h166v173h160v-173h167v-150h-167v-174h-160v174h-166z" />
    <glyph glyph-name="comma" unicode="," horiz-adv-x="279" 
d="M26 97c0 62 49 112 113 112c62 0 115 -41 115 -121c0 -109 -56 -213 -144 -270l-74 82c31 20 69 59 78 89c-59 14 -88 62 -88 108z" />
    <glyph glyph-name="hyphen" unicode="-" horiz-adv-x="405" 
d="M49 222v170h306v-170h-306z" />
    <glyph glyph-name="period" unicode="." horiz-adv-x="279" 
d="M26 97c0 62 48 112 113 112s113 -50 113 -112c0 -60 -48 -110 -113 -110s-113 50 -113 110z" />
    <glyph glyph-name="slash" unicode="/" horiz-adv-x="487" 
d="M10 -108l300 858h167l-300 -858h-167z" />
    <glyph glyph-name="zero" unicode="0" horiz-adv-x="608" 
d="M564 350c0 -247 -81 -363 -260 -363c-180 0 -260 116 -260 363c0 246 80 363 260 363c179 0 260 -117 260 -363zM245 350c0 -135 15 -181 59 -181c45 0 59 46 59 181s-14 181 -59 181c-44 0 -59 -46 -59 -181z" />
    <glyph glyph-name="one" unicode="1" horiz-adv-x="375" 
d="M52 492l-45 162l144 46h163v-700h-197v510z" />
    <glyph glyph-name="two" unicode="2" horiz-adv-x="580" 
d="M41 0v64c0 210 295 320 295 420c0 30 -22 50 -58 50c-37 0 -61 -25 -72 -58l-172 50c20 78 90 187 253 187c140 0 251 -78 251 -221c0 -160 -219 -239 -259 -325h265v-167h-503z" />
    <glyph glyph-name="three" unicode="3" horiz-adv-x="566" 
d="M506 700v-167l-114 -96c78 -18 147 -75 147 -205c0 -147 -108 -245 -257 -245c-167 0 -232 112 -250 190l172 49c11 -34 37 -60 72 -60c39 0 62 26 62 58c0 27 -20 56 -66 56h-106v147l111 104h-214v169h443z" />
    <glyph glyph-name="four" unicode="4" horiz-adv-x="625" 
d="M23 150v137l266 413h235v-386h77v-164h-77v-150h-194v150h-307zM224 314h106v182z" />
    <glyph glyph-name="five" unicode="5" horiz-adv-x="569" 
d="M280 166c37 0 71 26 71 70c0 36 -23 70 -73 70c-34 0 -53 -17 -65 -34l-160 30l14 398h438v-169h-261l-4 -78c32 13 59 16 84 16c123 0 228 -95 228 -233c0 -142 -113 -249 -261 -249c-168 0 -241 112 -259 190l172 49c9 -40 40 -60 76 -60z" />
    <glyph glyph-name="six" unicode="6" horiz-adv-x="588" 
d="M301 169c43 0 59 28 59 64c0 43 -22 72 -63 72c-19 0 -41 -6 -62 -18c0 -61 1 -118 66 -118zM349 713c90 0 147 -27 174 -42l-74 -160c-16 8 -44 19 -86 19c-79 0 -108 -44 -117 -83c16 7 48 23 99 23c114 0 210 -65 210 -229c0 -146 -104 -254 -254 -254
c-209 0 -268 128 -268 328c0 187 63 398 316 398z" />
    <glyph glyph-name="seven" unicode="7" horiz-adv-x="546" 
d="M21 700h501v-136l-217 -564h-215l211 531h-280v169z" />
    <glyph glyph-name="eight" unicode="8" horiz-adv-x="590" 
d="M294 -13c-165 0 -265 86 -265 228c0 69 32 126 77 155c-33 26 -61 73 -61 134c0 117 91 209 249 209s249 -92 249 -209c0 -61 -28 -108 -61 -134c45 -29 77 -86 77 -155c0 -142 -100 -228 -265 -228zM294 539c-36 0 -53 -20 -53 -48c0 -34 19 -49 53 -49s53 15 53 49
c0 28 -17 48 -53 48zM294 164c39 0 62 20 62 55c0 27 -18 56 -62 56s-62 -29 -62 -56c0 -35 23 -55 62 -55z" />
    <glyph glyph-name="nine" unicode="9" horiz-adv-x="588" 
d="M287 531c-43 0 -59 -28 -59 -64c0 -43 22 -72 63 -72c19 0 41 6 62 18c0 61 -1 118 -66 118zM239 -13c-90 0 -147 27 -174 42l74 160c16 -8 44 -19 86 -19c79 0 108 44 117 83c-16 -7 -48 -23 -99 -23c-114 0 -210 65 -210 229c0 146 104 254 254 254
c209 0 268 -128 268 -328c0 -187 -63 -398 -316 -398z" />
    <glyph glyph-name="colon" unicode=":" horiz-adv-x="279" 
d="M26 97c0 62 48 112 113 112s113 -50 113 -112c0 -60 -48 -110 -113 -110s-113 50 -113 110zM26 423c0 62 48 112 113 112s113 -50 113 -112c0 -60 -48 -110 -113 -110s-113 50 -113 110z" />
    <glyph glyph-name="semicolon" unicode=";" horiz-adv-x="279" 
d="M26 423c0 62 48 112 113 112s113 -50 113 -112c0 -60 -48 -110 -113 -110s-113 50 -113 110zM26 97c0 62 49 112 113 112c62 0 115 -41 115 -121c0 -109 -56 -213 -144 -270l-74 82c31 20 69 59 78 89c-59 14 -88 62 -88 108z" />
    <glyph glyph-name="less" unicode="&#x3c;" horiz-adv-x="532" 
d="M48 246v133l436 192v-162l-259 -96l259 -96v-163z" />
    <glyph glyph-name="equal" unicode="=" horiz-adv-x="562" 
d="M35 338v149h493v-149h-493zM35 128v149h493v-149h-493z" />
    <glyph glyph-name="greater" unicode="&#x3e;" horiz-adv-x="532" 
d="M484 379v-133l-436 -192v163l259 96l-259 96v162z" />
    <glyph glyph-name="question" unicode="?" horiz-adv-x="506" 
d="M139 227v44c0 135 150 164 150 229c0 21 -15 45 -53 45c-42 0 -57 -33 -64 -50l-152 67c20 58 77 151 230 151c135 0 236 -79 236 -200c0 -137 -160 -169 -160 -255v-31h-187zM118 97c0 62 48 112 113 112s113 -50 113 -112c0 -60 -48 -110 -113 -110s-113 50 -113 110z
" />
    <glyph glyph-name="at" unicode="@" horiz-adv-x="936" 
d="M258 259c0 112 68 197 179 197c48 0 81 -21 91 -31v25h140v-221c0 -34 16 -49 42 -49c39 0 61 50 61 125c0 159 -111 254 -296 254s-303 -125 -303 -295c0 -181 120 -291 312 -291c74 0 151 18 201 52l61 -96c-65 -43 -156 -74 -262 -74c-274 0 -451 163 -451 404
c0 253 199 417 445 417c264 0 426 -161 426 -364c0 -148 -79 -249 -206 -249c-55 0 -104 23 -128 60c-16 -25 -56 -61 -127 -61c-114 0 -185 84 -185 197zM407 260c0 -39 24 -70 62 -70c36 0 62 28 62 70c0 33 -23 68 -61 68c-35 0 -63 -29 -63 -68z" />
    <glyph glyph-name="A" unicode="A" horiz-adv-x="702" 
d="M456 134h-210l-42 -134h-200l242 700h210l242 -700h-200zM409 293l-58 201l-58 -201h116z" />
    <glyph glyph-name="B" unicode="B" horiz-adv-x="610" 
d="M58 0v700h271c147 0 237 -68 237 -190c0 -64 -26 -110 -75 -143c67 -30 97 -87 97 -155c0 -147 -114 -212 -254 -212h-276zM256 435h58c32 0 49 22 49 51c0 28 -17 48 -51 48h-56v-99zM256 167h71c36 0 57 30 57 57c0 28 -19 56 -54 56h-74v-113z" />
    <glyph glyph-name="C" unicode="C" horiz-adv-x="635" 
d="M23 351c0 201 148 362 375 362c84 0 161 -25 212 -60l-55 -174c-33 27 -81 52 -147 52c-106 0 -177 -78 -177 -180c0 -104 71 -182 177 -182c66 0 114 25 147 52l55 -174c-51 -35 -128 -60 -212 -60c-227 0 -375 161 -375 364z" />
    <glyph glyph-name="D" unicode="D" horiz-adv-x="684" 
d="M58 0v700h228c225 0 374 -131 374 -350c0 -216 -147 -350 -374 -350h-228zM257 168h25c102 0 171 61 171 182c0 123 -69 182 -171 182h-25v-364z" />
    <glyph glyph-name="E" unicode="E" horiz-adv-x="498" 
d="M58 0v700h392v-174h-193v-86h163v-173h-163v-93h201v-174h-400z" />
    <glyph glyph-name="F" unicode="F" horiz-adv-x="482" 
d="M58 0v700h389v-174h-190v-98h165v-173h-165v-255h-199z" />
    <glyph glyph-name="G" unicode="G" horiz-adv-x="767" 
d="M398 -13c-227 0 -375 161 -375 364c0 201 148 362 375 362c163 0 255 -81 293 -127l-126 -128c-26 30 -70 73 -157 73c-106 0 -177 -78 -177 -180c0 -104 74 -182 184 -182c78 0 119 21 134 33v39h-113v163h295v-308c-75 -52 -162 -109 -333 -109z" />
    <glyph glyph-name="H" unicode="H" horiz-adv-x="736" 
d="M58 0v700h199v-263h222v263h199v-700h-199v262h-222v-262h-199z" />
    <glyph glyph-name="I" unicode="I" horiz-adv-x="315" 
d="M58 0v700h199v-700h-199z" />
    <glyph glyph-name="J" unicode="J" horiz-adv-x="409" 
d="M18 5l24 172c14 -2 34 -4 52 -4c42 0 57 28 57 53v474h199v-512c0 -149 -101 -194 -221 -194c-35 0 -80 3 -111 11z" />
    <glyph glyph-name="K" unicode="K" horiz-adv-x="673" 
d="M58 0v700h199v-280l182 280h221l-233 -335l241 -365h-227l-184 286v-286h-199z" />
    <glyph glyph-name="L" unicode="L" horiz-adv-x="469" 
d="M58 0v700h199v-526h201v-174h-400z" />
    <glyph glyph-name="M" unicode="M" horiz-adv-x="947" 
d="M317 700l156 -416l158 416h258v-700h-190v426l-135 -371h-181l-134 371v-426h-191v700h259z" />
    <glyph glyph-name="N" unicode="N" horiz-adv-x="740" 
d="M58 0v700h203l225 -397v397h196v-700h-198l-231 391v-391h-195z" />
    <glyph glyph-name="O" unicode="O" horiz-adv-x="802" 
d="M401 -13c-231 0 -378 159 -378 364c0 202 147 362 378 362s378 -160 378 -362c0 -205 -147 -364 -378 -364zM401 531c-102 0 -170 -78 -170 -180c0 -105 68 -182 170 -182s170 77 170 182c0 102 -68 180 -170 180z" />
    <glyph glyph-name="P" unicode="P" horiz-adv-x="584" 
d="M58 0v700h273c149 0 236 -92 236 -233c0 -138 -92 -235 -233 -235h-77v-232h-199zM257 399h42c42 0 64 29 64 69c0 38 -24 65 -62 65h-44v-134z" />
    <glyph glyph-name="Q" unicode="Q" horiz-adv-x="803" 
d="M401 -13c-231 0 -378 159 -378 364c0 202 147 362 378 362s378 -160 378 -362c0 -67 -16 -130 -45 -183l61 -51l-117 -134l-68 57c-57 -34 -128 -53 -209 -53zM401 531c-102 0 -170 -78 -170 -180c0 -105 68 -182 170 -182c18 0 39 2 51 7l-54 47l114 132l54 -47
c3 11 5 28 5 43c0 102 -68 180 -170 180z" />
    <glyph glyph-name="R" unicode="R" horiz-adv-x="632" 
d="M58 0v700h247c174 0 257 -84 257 -221c0 -75 -32 -147 -92 -185l160 -294h-219l-118 247h-36v-247h-199zM257 409h33c45 0 69 27 69 63c0 39 -24 61 -69 61h-33v-124z" />
    <glyph glyph-name="S" unicode="S" horiz-adv-x="546" 
d="M12 157l166 82c20 -37 60 -69 96 -69c31 0 44 13 44 31c0 71 -285 73 -285 296c0 133 97 216 242 216c161 0 220 -115 239 -170l-165 -74c-14 29 -31 64 -79 64c-24 0 -38 -13 -38 -32c0 -78 287 -74 287 -285c0 -134 -89 -229 -251 -229c-165 0 -238 121 -256 170z" />
    <glyph glyph-name="T" unicode="T" horiz-adv-x="521" 
d="M161 0v526h-143v174h487v-174h-145v-526h-199z" />
    <glyph glyph-name="U" unicode="U" horiz-adv-x="726" 
d="M363 -13c-197 0 -305 118 -305 287v426h199v-427c0 -65 41 -106 106 -106s106 41 106 106v427h199v-426c0 -169 -108 -287 -305 -287z" />
    <glyph glyph-name="V" unicode="V" horiz-adv-x="733" 
d="M475 0h-217l-254 700h218l145 -470l144 470h218z" />
    <glyph glyph-name="W" unicode="W" horiz-adv-x="1028" 
d="M614 0l-100 402l-100 -402h-226l-181 700h213l93 -465l112 465h178l112 -465l93 465h213l-182 -700h-225z" />
    <glyph glyph-name="X" unicode="X" horiz-adv-x="683" 
d="M4 0l221 351l-222 349h234l105 -198l104 198h234l-223 -350l222 -350h-221l-116 205l-118 -205h-220z" />
    <glyph glyph-name="Y" unicode="Y" horiz-adv-x="644" 
d="M223 0v313l-217 387h223l93 -211l97 211h219l-217 -387v-313h-198z" />
    <glyph glyph-name="Z" unicode="Z" horiz-adv-x="624" 
d="M31 0v122l288 406h-281v172h550v-121l-292 -407h295v-172h-560z" />
    <glyph glyph-name="bracketleft" unicode="[" horiz-adv-x="368" 
d="M27 -197v1031h283v-164h-92v-703h92v-164h-283z" />
    <glyph glyph-name="backslash" unicode="\" horiz-adv-x="487" 
d="M177 750l300 -858h-167l-300 858h167z" />
    <glyph glyph-name="bracketright" unicode="]" horiz-adv-x="367" 
d="M341 834v-1031h-283v164h92v703h-92v164h283z" />
    <glyph glyph-name="asciicircum" unicode="^" horiz-adv-x="601" 
d="M35 318l187 382h156l187 -382h-177l-88 203l-88 -203h-177z" />
    <glyph glyph-name="underscore" unicode="_" horiz-adv-x="633" 
d="M16 -29h601v-146h-601v146z" />
    <glyph glyph-name="grave" unicode="`" horiz-adv-x="488" 
d="M311 725l65 -151h-155l-110 151h200z" />
    <glyph glyph-name="a" unicode="a" horiz-adv-x="551" 
d="M16 164c0 106 81 176 209 176c36 0 73 -9 94 -20v16c0 21 -20 42 -69 42c-42 0 -86 -11 -129 -30l-72 126c57 39 145 67 224 67c191 0 240 -104 240 -227v-314h-174l-11 29c-29 -30 -74 -42 -125 -42c-95 0 -187 59 -187 177zM210 171c0 -28 28 -40 56 -40s56 12 56 40
c0 27 -26 42 -57 42c-29 0 -55 -15 -55 -42z" />
    <glyph glyph-name="b" unicode="b" horiz-adv-x="640" 
d="M44 0v723h194v-228c19 16 66 46 134 46c153 0 249 -114 249 -277c0 -162 -108 -277 -262 -277c-69 0 -115 27 -135 47v-34h-180zM232 264c0 -60 33 -110 97 -110c61 0 98 43 98 110c0 65 -36 111 -98 111c-58 0 -97 -41 -97 -111z" />
    <glyph glyph-name="c" unicode="c" horiz-adv-x="486" 
d="M464 499l-51 -160c-32 24 -64 32 -93 32c-72 0 -109 -50 -109 -108c0 -68 49 -109 116 -109c28 0 64 10 88 28l50 -155c-41 -27 -97 -40 -155 -40c-174 0 -292 114 -292 276c0 163 127 278 294 278c62 0 118 -18 152 -42z" />
    <glyph glyph-name="d" unicode="d" horiz-adv-x="639" 
d="M596 723v-723h-180v34c-20 -20 -66 -47 -135 -47c-154 0 -262 115 -262 277c0 163 96 277 249 277c68 0 115 -30 134 -46v228h194zM408 264c0 70 -39 111 -97 111c-62 0 -98 -46 -98 -111c0 -67 37 -110 98 -110c64 0 97 50 97 110z" />
    <glyph glyph-name="e" unicode="e" horiz-adv-x="566" 
d="M19 271c0 150 103 270 265 270c174 0 266 -108 266 -293c0 -11 -1 -25 -2 -35h-330c10 -41 44 -64 92 -64c49 0 85 32 95 47l132 -92c-12 -26 -86 -117 -230 -117c-181 0 -288 130 -288 284zM223 331h130c-2 24 -22 57 -65 57c-46 0 -63 -37 -65 -57z" />
    <glyph glyph-name="f" unicode="f" horiz-adv-x="362" 
d="M73 0v375h-55v153h55v10c0 140 107 190 225 190c22 0 44 -2 57 -4v-158c-5 1 -17 3 -28 3c-39 0 -59 -13 -59 -34v-7h76v-153h-76v-375h-195z" />
    <glyph glyph-name="g" unicode="g" horiz-adv-x="633" 
d="M90 -149l55 146c14 -6 80 -33 145 -33c58 0 113 13 113 56v11c-29 -24 -65 -40 -122 -40c-154 0 -262 113 -262 275c0 163 96 275 249 275c68 0 115 -30 134 -46v33h194v-461c0 -198 -146 -259 -300 -259c-78 0 -158 20 -206 43zM408 266c0 68 -39 109 -97 109
c-62 0 -98 -46 -98 -109c0 -65 37 -108 98 -108c64 0 97 50 97 108z" />
    <glyph glyph-name="h" unicode="h" horiz-adv-x="585" 
d="M362 541c138 0 184 -121 184 -243v-298h-194v311c0 40 -25 59 -57 59c-38 0 -57 -26 -57 -56v-314h-194v723h194v-239c21 26 64 57 124 57z" />
    <glyph glyph-name="i" unicode="i" 
d="M44 0v528h194v-528h-194zM38 655c0 56 46 97 103 97s104 -41 104 -97c0 -55 -47 -96 -104 -96s-103 41 -103 96z" />
    <glyph glyph-name="j" unicode="j" 
d="M44 18v510h194v-526c0 -144 -102 -194 -240 -194c-17 0 -36 3 -41 4v158s13 -1 25 -1c41 0 62 19 62 49zM38 655c0 56 46 97 103 97s104 -41 104 -97c0 -55 -47 -96 -104 -96s-103 41 -103 96z" />
    <glyph glyph-name="k" unicode="k" horiz-adv-x="591" 
d="M44 0v723h194v-400l124 205h217l-168 -243l182 -285h-228l-127 233v-233h-194z" />
    <glyph glyph-name="l" unicode="l" 
d="M44 0v723h194v-723h-194z" />
    <glyph glyph-name="m" unicode="m" horiz-adv-x="862" 
d="M822 340v-340h-194v315c0 33 -20 55 -51 55c-30 0 -48 -24 -48 -55v-315h-193v311c0 37 -18 59 -50 59c-30 0 -48 -18 -48 -56v-314h-194v528h189v-50c18 28 57 63 128 63c58 0 103 -23 133 -62c32 36 79 62 147 62c120 0 181 -91 181 -201z" />
    <glyph glyph-name="n" unicode="n" horiz-adv-x="583" 
d="M365 541c125 0 179 -79 179 -201v-340h-194v311c0 40 -24 59 -56 59c-38 0 -56 -26 -56 -56v-314h-194v528h189v-50c19 27 67 63 132 63z" />
    <glyph glyph-name="o" unicode="o" horiz-adv-x="624" 
d="M606 264c0 -160 -127 -277 -294 -277s-294 117 -294 277s127 277 294 277s294 -117 294 -277zM212 264c0 -67 42 -110 100 -110s100 43 100 110s-42 111 -100 111s-100 -44 -100 -111z" />
    <glyph glyph-name="p" unicode="p" horiz-adv-x="640" 
d="M44 -187v715h180v-34c20 20 66 47 135 47c154 0 262 -115 262 -277c0 -163 -96 -277 -249 -277c-68 0 -115 30 -134 46v-220h-194zM232 264c0 -70 39 -111 97 -111c62 0 98 46 98 111c0 67 -37 110 -98 110c-64 0 -97 -50 -97 -110z" />
    <glyph glyph-name="q" unicode="q" horiz-adv-x="639" 
d="M596 528v-715h-194v220c-19 -16 -66 -46 -134 -46c-153 0 -249 114 -249 277c0 162 108 277 262 277c69 0 115 -27 135 -47v34h180zM408 264c0 60 -33 110 -97 110c-61 0 -98 -43 -98 -110c0 -65 36 -111 98 -111c58 0 97 41 97 111z" />
    <glyph glyph-name="r" unicode="r" horiz-adv-x="390" 
d="M370 541v-189c-7 2 -18 4 -31 4c-65 0 -101 -41 -101 -110v-246h-194v528h189v-67c26 50 80 80 137 80z" />
    <glyph glyph-name="s" unicode="s" horiz-adv-x="460" 
d="M10 71l106 106c31 -21 70 -37 113 -37c26 0 36 9 36 19c0 44 -238 25 -238 211c0 104 94 171 216 171c98 0 162 -44 199 -87l-125 -99c-19 17 -44 34 -78 34c-21 0 -30 -9 -30 -18c0 -52 241 -31 241 -206c0 -117 -91 -178 -220 -178c-99 0 -186 44 -220 84z" />
    <glyph glyph-name="t" unicode="t" horiz-adv-x="379" 
d="M70 528v111h189v-111h85v-153h-85v-173c0 -37 39 -42 69 -42c7 0 19 1 19 1v-163s-22 -6 -70 -6c-136 0 -212 66 -212 208v175h-50v153h55z" />
    <glyph glyph-name="u" unicode="u" horiz-adv-x="579" 
d="M219 -13c-125 0 -179 79 -179 201v340h194v-311c0 -40 24 -59 56 -59c38 0 56 26 56 56v314h194v-528h-189v50c-19 -27 -67 -63 -132 -63z" />
    <glyph glyph-name="v" unicode="v" horiz-adv-x="585" 
d="M407 0h-226l-179 528h208l85 -328l84 328h202z" />
    <glyph glyph-name="w" unicode="w" horiz-adv-x="855" 
d="M487 0l-60 266l-59 -266h-219l-142 528h212l54 -322s1 4 65 322h180c63 -318 64 -322 64 -322l54 322h213l-143 -528h-219z" />
    <glyph glyph-name="x" unicode="x" horiz-adv-x="569" 
d="M362 0l-77 134l-79 -134h-206l176 267l-174 261h215l68 -133l66 133h215l-173 -261l176 -267h-207z" />
    <glyph glyph-name="y" unicode="y" horiz-adv-x="579" 
d="M313 -179h-182l71 199l-196 508h208l76 -273l81 273h202z" />
    <glyph glyph-name="z" unicode="z" horiz-adv-x="482" 
d="M27 0v112l182 258h-179v158h425v-113l-185 -257h186v-158h-429z" />
    <glyph glyph-name="braceleft" unicode="{" horiz-adv-x="438" 
d="M22 227v182c41 0 75 11 75 93v85c0 164 117 247 283 247v-164c-67 0 -92 -32 -92 -83v-131c0 -90 -70 -130 -107 -138c37 -8 107 -48 107 -138v-130c0 -51 25 -83 92 -83v-164c-166 0 -283 83 -283 247v84c0 82 -34 93 -75 93z" />
    <glyph glyph-name="bar" unicode="|" horiz-adv-x="315" 
d="M66 -262v1123h183v-1123h-183z" />
    <glyph glyph-name="braceright" unicode="}" horiz-adv-x="438" 
d="M416 409v-182c-41 0 -75 -11 -75 -93v-84c0 -164 -117 -247 -283 -247v164c67 0 92 32 92 83v130c0 90 70 130 107 138c-37 8 -107 48 -107 138v131c0 51 -25 83 -92 83v164c166 0 283 -83 283 -247v-85c0 -82 34 -93 75 -93z" />
    <glyph glyph-name="asciitilde" unicode="~" horiz-adv-x="566" 
d="M355 374c21 0 36 13 36 36h148c0 -94 -51 -210 -164 -210c-64 -4 -123 36 -165 36c-22 0 -37 -13 -36 -37h-147c0 128 67 210 169 210c65 0 112 -35 159 -35z" />
    <glyph glyph-name="exclamdown" unicode="&#xa1;" horiz-adv-x="328" 
d="M51 450c0 60 48 110 113 110s113 -50 113 -110c0 -62 -48 -112 -113 -112s-113 50 -113 112zM61 -153l15 473h176l15 -473h-206z" />
    <glyph glyph-name="sterling" unicode="&#xa3;" horiz-adv-x="601" 
d="M37 272v142h47v77c0 129 89 222 245 222c146 0 205 -103 223 -162l-160 -67c-6 20 -21 49 -61 49c-30 0 -52 -23 -52 -53v-66h147v-142h-147v-103h292v-169h-539v169h52v103h-47z" />
    <glyph glyph-name="yen" unicode="&#xa5;" horiz-adv-x="644" 
d="M77 314v120h78l-149 266h222l94 -211l97 211h219l-148 -266h76v-120h-145v-54h145v-120h-145v-140h-198v140h-146v120h146v54h-146z" />
    <glyph glyph-name="dieresis" unicode="&#xa8;" horiz-adv-x="488" 
d="M271 653c0 46 33 84 85 84c50 0 86 -38 86 -84s-36 -84 -86 -84c-52 0 -85 38 -85 84zM45 653c0 46 35 84 86 84s87 -38 87 -84s-36 -84 -87 -84s-86 38 -86 84z" />
    <glyph glyph-name="copyright" unicode="&#xa9;" horiz-adv-x="795" 
d="M30 348c0 207 155 365 368 365c211 0 367 -158 367 -365c0 -203 -156 -362 -368 -362s-367 159 -367 362zM149 352c0 -152 99 -260 248 -260s249 108 249 259c0 148 -100 256 -248 256c-150 0 -249 -108 -249 -255zM215 351c0 108 78 191 185 191c89 0 132 -53 150 -81
l-101 -75c-7 13 -20 31 -46 31c-27 0 -49 -27 -49 -67c0 -39 22 -66 49 -66c26 0 39 18 46 31l101 -76c-18 -27 -61 -80 -150 -80c-107 0 -185 84 -185 192z" />
    <glyph glyph-name="ordfeminine" unicode="&#xaa;" horiz-adv-x="422" 
d="M25 432c0 80 61 130 157 130c31 0 60 -9 71 -14v12c0 15 -16 32 -53 32c-33 0 -65 -8 -96 -23l-54 94c39 28 101 50 168 50c145 0 179 -72 179 -164v-239h-130l-7 20c-19 -18 -49 -30 -87 -30c-75 0 -148 44 -148 132zM169 437c0 -21 22 -30 43 -30c24 0 43 9 43 30
c0 22 -19 32 -43 32c-23 0 -43 -11 -43 -32z" />
    <glyph glyph-name="guillemotleft" unicode="&#xab;" horiz-adv-x="557" 
d="M242 296l124 192h167l-123 -192l123 -192h-167zM146 104l-123 192l123 192h168l-123 -192l123 -192h-168z" />
    <glyph glyph-name="registered" unicode="&#xae;" horiz-adv-x="461" 
d="M224 496h-14v-69h-70v216h106c50 0 77 -30 77 -72c0 -35 -15 -54 -34 -62l40 -82h-73zM233 586h-23v-36h23c10 0 18 7 18 18s-8 18 -18 18zM13 532c0 118 88 210 214 210c135 0 220 -91 220 -209c0 -117 -86 -211 -218 -211c-131 0 -216 91 -216 210zM78 532
c0 -86 59 -151 151 -151c95 0 152 64 152 152s-58 149 -154 149c-90 0 -149 -63 -149 -150z" />
    <glyph glyph-name="macron" unicode="&#xaf;" horiz-adv-x="449" 
d="M76 581v134h297v-134h-297z" />
    <glyph glyph-name="degree" unicode="&#xb0;" horiz-adv-x="407" 
d="M21 539c0 96 78 174 183 174c104 0 182 -78 182 -174c0 -97 -77 -172 -182 -172c-106 0 -183 75 -183 172zM154 540c0 -26 17 -48 50 -48s49 22 49 48c0 25 -16 48 -49 48c-34 0 -50 -23 -50 -48z" />
    <glyph glyph-name="twosuperior" unicode="&#xb2;" horiz-adv-x="385" 
d="M29 300v54c0 117 181 158 181 207c0 15 -10 25 -28 25c-26 0 -39 -20 -48 -40l-112 39c11 42 56 123 166 123c88 0 168 -43 168 -132c0 -96 -122 -136 -152 -163h157v-113h-332z" />
    <glyph glyph-name="threesuperior" unicode="&#xb3;" horiz-adv-x="380" 
d="M339 700v-86l-78 -69c57 -12 93 -56 93 -114c0 -93 -78 -139 -166 -139c-110 0 -154 81 -164 123l111 39c7 -19 21 -39 47 -39c17 0 30 12 30 28c0 17 -17 29 -38 29h-53v80l40 38h-118v110h296z" />
    <glyph glyph-name="acute" unicode="&#xb4;" horiz-adv-x="488" 
d="M111 574l65 151h200l-110 -151h-155z" />
    <glyph glyph-name="paragraph" unicode="&#xb6;" horiz-adv-x="594" 
d="M223 -45v362c-107 2 -191 82 -191 193c0 110 83 190 196 190h140v-745h-145zM424 -45v745h146v-745h-146z" />
    <glyph glyph-name="periodcentered" unicode="&#xb7;" horiz-adv-x="278" 
d="M26 314c0 62 48 112 113 112s113 -50 113 -112c0 -60 -48 -110 -113 -110s-113 50 -113 110z" />
    <glyph glyph-name="cedilla" unicode="&#xb8;" horiz-adv-x="449" 
d="M160 14h93l-7 -46c45 -12 78 -46 78 -97c0 -75 -62 -111 -140 -111c-27 0 -60 8 -74 14l24 87c8 -2 21 -5 35 -5c20 0 33 11 33 23c0 18 -26 24 -42 24c-11 0 -19 -2 -19 -2z" />
    <glyph glyph-name="onesuperior" unicode="&#xb9;" horiz-adv-x="321" 
d="M71 553l-33 117l95 30h117v-400h-141v264z" />
    <glyph glyph-name="ordmasculine" unicode="&#xba;" horiz-adv-x="502" 
d="M175 505c0 -48 32 -80 76 -80c43 0 77 34 77 82c0 50 -35 81 -77 81c-45 0 -76 -32 -76 -83zM30 505c0 120 94 208 220 208c132 0 222 -87 222 -206s-94 -207 -221 -207c-131 0 -221 87 -221 205z" />
    <glyph glyph-name="guillemotright" unicode="&#xbb;" horiz-adv-x="557" 
d="M192 488l123 -192l-123 -192h-169l125 192l-125 192h169zM534 296l-122 -192h-169l124 192l-124 192h169z" />
    <glyph glyph-name="onequarter" unicode="&#xbc;" horiz-adv-x="887" 
d="M323 -41h-162l368 782h164zM681 0v67h-184v103l167 230h154v-216h44v-117h-44v-67h-137zM623 184h58v87c-58 -86 -58 -87 -58 -87zM64 553l-33 117l95 30h117v-400h-141v264z" />
    <glyph glyph-name="onehalf" unicode="&#xbd;" horiz-adv-x="901" 
d="M313 -41h-162l368 782h163zM64 553l-33 117l95 30h117v-400h-141v264zM533 0v54c0 117 181 158 181 207c0 15 -10 25 -28 25c-26 0 -39 -20 -48 -40l-112 39c11 42 56 123 166 123c88 0 168 -43 168 -132c0 -96 -122 -136 -152 -163h157v-113h-332z" />
    <glyph glyph-name="threequarters" unicode="&#xbe;" horiz-adv-x="924" 
d="M362 -41h-162l368 782h163zM717 0v67h-185v103l168 230h154v-216h44v-117h-44v-67h-137zM659 184h58v87zM335 700v-86l-78 -69c57 -12 93 -56 93 -114c0 -93 -78 -139 -166 -139c-110 0 -154 81 -164 123l111 39c7 -19 21 -39 47 -39c17 0 30 12 30 28
c0 17 -17 29 -38 29h-53v80l40 38h-118v110h296z" />
    <glyph glyph-name="questiondown" unicode="&#xbf;" horiz-adv-x="506" 
d="M367 320v-44c0 -135 -150 -164 -150 -229c0 -21 15 -45 53 -45c42 0 57 33 64 50l152 -67c-20 -58 -77 -151 -230 -151c-135 0 -236 79 -236 200c0 137 160 169 160 255v31h187zM388 450c0 -62 -48 -112 -113 -112s-113 50 -113 112c0 60 48 110 113 110
s113 -50 113 -110z" />
    <glyph glyph-name="AE" unicode="&#xc6;" horiz-adv-x="918" 
d="M8 0l381 700h481v-174h-193v-86h163v-173h-163v-93h200v-174h-399v134h-184l-70 -134h-216zM478 519l-113 -226h113v226z" />
    <glyph glyph-name="Eth" unicode="&#xd0;" horiz-adv-x="702" 
d="M21 266v170h54v264h228c225 0 374 -131 374 -350c0 -216 -148 -350 -374 -350h-228v266h-54zM274 168h25c103 0 171 61 171 182c0 123 -68 182 -171 182h-25v-96h85v-170h-85v-98z" />
    <glyph glyph-name="multiply" unicode="&#xd7;" horiz-adv-x="538" 
d="M22 168l141 144l-141 143l108 105l137 -142l141 142l107 -105l-141 -144l140 -143l-106 -104l-139 141l-139 -142z" />
    <glyph glyph-name="Thorn" unicode="&#xde;" horiz-adv-x="602" 
d="M58 0v700h199v-111h93c149 0 235 -92 235 -232c0 -141 -92 -238 -235 -238h-93v-119h-199zM257 289h63c42 0 61 28 61 67s-21 66 -59 66h-65v-133z" />
    <glyph glyph-name="germandbls" unicode="&#xdf;" horiz-adv-x="592" 
d="M293 569c-42 0 -55 -24 -55 -44v-525h-194v538c0 142 113 190 231 190c157 0 255 -71 255 -184c0 -60 -29 -91 -60 -112c52 -32 103 -87 103 -189c0 -147 -111 -243 -302 -243v155c73 0 108 41 108 93c0 50 -37 86 -108 86v146c54 0 80 14 80 46c0 23 -17 43 -58 43z" />
    <glyph glyph-name="eth" unicode="&#xf0;" horiz-adv-x="598" 
d="M16 252c0 159 125 242 267 242c-3 8 -14 27 -27 40l-159 -52l-17 114l73 24c-23 19 -48 31 -67 41l106 95c46 -16 103 -44 145 -73l143 48l16 -117l-60 -21c69 -70 141 -183 141 -310c0 -149 -81 -296 -281 -296c-174 0 -280 120 -280 265zM210 252c0 -54 31 -98 87 -98
s87 44 87 98c0 52 -28 93 -87 93s-87 -41 -87 -93z" />
    <glyph glyph-name="divide" unicode="&#xf7;" horiz-adv-x="563" 
d="M280 427c-52 0 -91 41 -91 90c0 50 39 91 91 91s91 -41 91 -91c0 -49 -39 -90 -91 -90zM35 237v150h493v-150h-493zM280 16c-52 0 -91 41 -91 90c0 50 39 91 91 91s91 -41 91 -91c0 -49 -39 -90 -91 -90z" />
    <glyph glyph-name="thorn" unicode="&#xfe;" horiz-adv-x="640" 
d="M44 -187v910h194v-228c18 15 66 46 134 46c154 0 249 -115 249 -277c0 -163 -96 -277 -249 -277c-68 0 -115 30 -134 46v-220h-194zM232 264c0 -70 39 -111 97 -111c62 0 98 46 98 111c0 67 -37 110 -98 110c-64 0 -97 -50 -97 -110z" />
    <glyph glyph-name="Dcroat" unicode="&#x110;" horiz-adv-x="702" 
d="M21 266v170h54v264h228c225 0 374 -131 374 -350c0 -216 -148 -350 -374 -350h-228v266h-54zM274 168h25c103 0 171 61 171 182c0 123 -68 182 -171 182h-25v-96h85v-170h-85v-98z" />
    <glyph glyph-name="dotlessi" unicode="&#x131;" 
d="M44 0v528h194v-528h-194z" />
    <glyph glyph-name="florin" unicode="&#x192;" horiz-adv-x="505" 
d="M326 298l-38 -313c-16 -131 -111 -177 -233 -177c-31 0 -61 4 -69 6l20 157s13 -3 26 -3c52 0 63 18 71 82l32 248h-51v153h72l11 79c20 146 126 186 232 186c27 0 63 -5 69 -6l-20 -156c-7 1 -20 2 -30 2c-32 0 -57 -14 -61 -44l-9 -61h70v-153h-92z" />
    <glyph glyph-name="circumflex" unicode="&#x2c6;" horiz-adv-x="450" 
d="M262 574l-37 61l-37 -61h-159l98 151h196l98 -151h-159z" />
    <glyph glyph-name="caron" unicode="&#x2c7;" horiz-adv-x="450" 
d="M225 664l37 61h159l-98 -151h-196l-98 151h159z" />
    <glyph glyph-name="breve" unicode="&#x2d8;" horiz-adv-x="448" 
d="M223 576c-111 0 -176 64 -176 158h134c0 -23 9 -52 42 -52c34 0 43 29 43 52h134c0 -94 -65 -158 -177 -158z" />
    <glyph glyph-name="dotaccent" unicode="&#x2d9;" horiz-adv-x="448" 
d="M139 655c0 47 38 85 85 85s85 -38 85 -85s-38 -85 -85 -85s-85 38 -85 85z" />
    <glyph glyph-name="ring" unicode="&#x2da;" horiz-adv-x="448" 
d="M99 664c0 66 55 111 124 111c71 0 125 -45 125 -110c0 -66 -54 -111 -125 -111c-69 0 -124 45 -124 110zM189 665c0 -22 14 -37 35 -37s35 15 35 37c0 21 -14 36 -35 36s-35 -15 -35 -36z" />
    <glyph glyph-name="ogonek" unicode="&#x2db;" horiz-adv-x="450" 
d="M124 -115c0 62 52 100 86 115h112c-13 -4 -40 -23 -40 -50s23 -34 43 -34v-127c-16 -4 -43 -8 -70 -8c-62 0 -131 25 -131 104z" />
    <glyph glyph-name="tilde" unicode="&#x2dc;" horiz-adv-x="449" 
d="M295 574c-55 0 -94 30 -124 30c-18 0 -28 -11 -28 -31h-116c0 94 49 159 127 159c55 0 94 -30 124 -30c18 0 28 11 28 31h116c0 -94 -49 -159 -127 -159z" />
    <glyph glyph-name="hungarumlaut" unicode="&#x2dd;" horiz-adv-x="509" 
d="M17 574l65 151h190l-110 -151h-145zM236 574l65 151h190l-110 -151h-145z" />
    <glyph glyph-name="endash" unicode="&#x2013;" horiz-adv-x="705" 
d="M49 236v155h607v-155h-607z" />
    <glyph glyph-name="emdash" unicode="&#x2014;" horiz-adv-x="985" 
d="M50 236v155h885v-155h-885z" />
    <glyph glyph-name="quoteleft" unicode="&#x2018;" horiz-adv-x="266" 
d="M247 467c0 -62 -49 -112 -113 -112c-62 0 -115 41 -115 121c0 109 56 213 144 270l74 -82c-31 -20 -69 -59 -78 -89c59 -14 88 -62 88 -108z" />
    <glyph glyph-name="quoteright" unicode="&#x2019;" horiz-adv-x="266" 
d="M19 634c0 62 49 112 113 112c62 0 115 -41 115 -121c0 -109 -56 -213 -144 -270l-74 82c31 20 69 59 78 89c-59 14 -88 62 -88 108z" />
    <glyph glyph-name="quotesinglbase" unicode="&#x201a;" horiz-adv-x="279" 
d="M26 97c0 62 49 112 113 112c62 0 115 -41 115 -121c0 -109 -56 -213 -144 -270l-74 82c31 20 69 59 78 89c-59 14 -88 62 -88 108z" />
    <glyph glyph-name="quotedblleft" unicode="&#x201c;" horiz-adv-x="518" 
d="M247 467c0 -62 -49 -112 -113 -112c-62 0 -115 41 -115 121c0 109 56 213 144 270l74 -82c-31 -20 -69 -59 -78 -89c59 -14 88 -62 88 -108zM498 467c0 -62 -49 -112 -113 -112c-62 0 -115 41 -115 121c0 109 56 213 144 270l74 -82c-31 -20 -69 -59 -78 -89
c59 -14 88 -62 88 -108z" />
    <glyph glyph-name="quotedblright" unicode="&#x201d;" horiz-adv-x="518" 
d="M270 634c0 62 49 112 113 112c62 0 115 -41 115 -121c0 -109 -56 -213 -144 -270l-74 82c31 20 69 59 78 89c-59 14 -88 62 -88 108zM19 634c0 62 49 112 113 112c62 0 115 -41 115 -121c0 -109 -56 -213 -144 -270l-74 82c31 20 69 59 78 89c-59 14 -88 62 -88 108z" />
    <glyph glyph-name="quotedblbase" unicode="&#x201e;" horiz-adv-x="530" 
d="M277 97c0 62 49 112 113 112c62 0 115 -41 115 -121c0 -109 -56 -213 -144 -270l-74 82c31 20 69 59 78 89c-59 14 -88 62 -88 108zM26 97c0 62 49 112 113 112c62 0 115 -41 115 -121c0 -109 -56 -213 -144 -270l-74 82c31 20 69 59 78 89c-59 14 -88 62 -88 108z" />
    <glyph glyph-name="dagger" unicode="&#x2020;" horiz-adv-x="477" 
d="M143 0v380h-122v165h122v155h191v-155h121v-165h-121v-380h-191z" />
    <glyph glyph-name="daggerdbl" unicode="&#x2021;" horiz-adv-x="476" 
d="M21 155v164h122v61h-122v165h122v155h191v-155h121v-165h-121v-61h121v-164h-121v-155h-191v155h-122z" />
    <glyph glyph-name="bullet" unicode="&#x2022;" horiz-adv-x="406" 
d="M203 138c-99 0 -172 77 -172 172s73 172 172 172s172 -77 172 -172s-73 -172 -172 -172z" />
    <glyph glyph-name="perthousand" unicode="&#x2030;" horiz-adv-x="1281" 
d="M71 0l537 700h185l-537 -700h-185zM205 358c-110 0 -188 75 -188 177c0 99 80 178 187 178c111 0 190 -79 190 -178c0 -101 -79 -177 -189 -177zM205 489c30 0 47 21 47 47c0 24 -19 44 -46 44c-29 0 -47 -21 -47 -44c0 -27 21 -47 46 -47zM468 164c0 99 80 178 188 178
c110 0 190 -79 190 -178c0 -100 -80 -177 -189 -177c-110 0 -189 76 -189 177zM611 165c0 -26 19 -46 45 -46c29 0 48 21 48 46s-21 45 -47 45c-29 0 -46 -21 -46 -45zM886 164c0 99 80 178 188 178c110 0 190 -79 190 -178c0 -100 -80 -177 -189 -177
c-110 0 -189 76 -189 177zM1029 165c0 -26 20 -46 45 -46c30 0 48 21 48 46s-20 45 -47 45c-28 0 -46 -21 -46 -45z" />
    <glyph glyph-name="guilsinglleft" unicode="&#x2039;" horiz-adv-x="338" 
d="M146 104l-123 192l123 192h168l-123 -192l123 -192h-168z" />
    <glyph glyph-name="guilsinglright" unicode="&#x203a;" horiz-adv-x="338" 
d="M192 488l123 -192l-123 -192h-169l125 192l-125 192h169z" />
    <glyph glyph-name="fraction" unicode="&#x2044;" horiz-adv-x="506" 
d="M150 -41h-162l368 782h163z" />
    <glyph glyph-name="Euro" unicode="&#x20ac;" horiz-adv-x="674" 
d="M22 215v119h47v36h-47v119h72c47 127 174 224 337 224c91 0 147 -20 190 -46l-80 -159c-22 12 -71 27 -110 27c-47 0 -92 -15 -120 -46h175l-12 -119h-198c-2 -14 0 -29 1 -36h192l-11 -119h-139c23 -31 82 -47 127 -47c47 0 87 17 107 29l73 -157
c-26 -26 -95 -53 -181 -53c-178 0 -303 91 -352 228h-71z" />
    <glyph glyph-name="trademark" unicode="&#x2122;" horiz-adv-x="837" 
d="M119 339v250h-84v111h297v-111h-84v-250h-129zM638 378h-114l-39 126v-165h-124v361h164l54 -178l56 178h166v-361h-124v165z" />
    <glyph glyph-name="minus" unicode="&#x2212;" horiz-adv-x="562" 
d="M34 237v150h493v-150h-493z" />
    <glyph glyph-name="quotedbl" unicode="&#x22;" horiz-adv-x="445" 
d="M45 427l-5 273h153l-5 -273h-143zM258 427l-5 273h153l-5 -273h-143z" />
    <glyph glyph-name="exclam" unicode="!" horiz-adv-x="328" 
d="M51 97c0 62 48 112 113 112s113 -50 113 -112c0 -60 -48 -110 -113 -110s-113 50 -113 110zM76 227l-15 473h206l-15 -473h-176z" />
    <glyph glyph-name="dollar" unicode="$" horiz-adv-x="546" 
d="M12 157l166 82c20 -37 60 -69 96 -69c31 0 44 13 44 31c0 71 -285 73 -285 296c0 116 74 194 191 212v57h112v-59c115 -24 162 -117 178 -164l-165 -74c-14 29 -31 64 -79 64c-24 0 -38 -13 -38 -32c0 -78 287 -74 287 -285c0 -113 -65 -199 -183 -222v-80h-112v75
c-134 24 -194 119 -212 168z" />
    <glyph glyph-name="ampersand" unicode="&#x26;" horiz-adv-x="694" 
d="M548 -31l-70 72c-39 -29 -103 -54 -181 -54c-172 0 -279 98 -279 228c0 80 45 144 115 194c-21 30 -42 69 -42 118c0 111 87 186 219 186c145 0 223 -83 223 -191c0 -82 -49 -140 -104 -177l48 -47c4 11 6 24 6 38h180c0 -60 -18 -122 -56 -176l68 -74zM295 157
c29 0 49 10 58 17l-108 113c-23 -17 -30 -40 -30 -59c0 -47 40 -71 80 -71zM266 516c0 -28 21 -50 51 -73c30 23 46 46 46 73c0 26 -19 46 -51 46c-26 0 -46 -20 -46 -46z" />
    <glyph glyph-name="cent" unicode="&#xa2;" horiz-adv-x="478" 
d="M260 0v66c-145 21 -243 125 -243 271c0 145 101 251 243 272v91h111v-92c32 -4 70 -19 93 -36l-51 -161c-32 22 -64 32 -94 32c-72 0 -108 -47 -108 -106c0 -68 45 -109 115 -109c29 0 63 10 87 29l50 -156c-28 -18 -60 -28 -92 -34v-67h-111z" />
    <glyph glyph-name="Oslash" unicode="&#xd8;" horiz-adv-x="803" 
d="M401 -13c-69 0 -130 14 -183 39l-44 -54l-100 78l42 51c-60 65 -93 152 -93 250c0 202 147 362 378 362c69 0 130 -14 182 -40l46 56l100 -78l-43 -53c60 -64 93 -151 93 -247c0 -205 -147 -364 -378 -364zM401 169c102 0 170 77 170 182c0 31 -7 60 -18 85l-211 -258
c18 -6 38 -9 59 -9zM401 531c-102 0 -170 -78 -170 -180c0 -32 6 -62 18 -87l210 257c-18 6 -37 10 -58 10z" />
    <glyph glyph-name="oslash" unicode="&#xf8;" horiz-adv-x="628" 
d="M608 264c0 -160 -127 -277 -294 -277c-47 0 -91 10 -130 26l-42 -52l-85 65l38 48c-47 48 -75 114 -75 190c0 160 127 277 294 277c49 0 95 -11 135 -29l39 48l85 -65l-37 -46c45 -48 72 -112 72 -185zM214 264c0 -14 2 -26 5 -38l118 146c-8 2 -15 3 -23 3
c-58 0 -100 -44 -100 -111zM414 264c0 11 -1 21 -3 30l-113 -139c5 -1 10 -1 16 -1c58 0 100 43 100 110z" />
    <glyph glyph-name="section" unicode="&#xa7;" horiz-adv-x="552" 
d="M519 239c0 -54 -26 -98 -83 -129c43 -35 78 -78 78 -143c0 -117 -89 -199 -231 -199c-159 0 -236 117 -254 172l163 70c13 -30 49 -66 91 -66c14 0 32 6 32 25c0 22 -19 35 -51 54l-113 66c-77 44 -119 94 -119 173c0 54 26 98 83 129c-44 35 -77 81 -77 143
c0 117 88 199 231 199c157 0 235 -117 253 -172l-163 -70c-13 30 -49 66 -90 66c-16 0 -32 -8 -32 -25c0 -22 19 -35 51 -54l120 -71c71 -41 111 -90 111 -168zM320 263l-66 32c-28 0 -41 -13 -41 -29c0 -12 5 -21 19 -28l66 -32c28 0 41 13 41 29c0 12 -5 21 -19 28z" />
    <glyph glyph-name="ae" unicode="&#xe6;" horiz-adv-x="861" 
d="M435 496c35 24 85 45 144 45c174 0 266 -108 266 -293c0 -11 -1 -25 -2 -35h-330c10 -41 44 -64 92 -64c49 0 85 32 95 47l132 -92c-12 -26 -86 -117 -230 -117c-82 0 -149 27 -198 71c-40 -42 -94 -71 -190 -71c-105 0 -198 63 -198 177c0 106 81 176 209 176
c36 0 73 -9 94 -20v16c0 21 -20 42 -69 42c-42 0 -86 -11 -129 -30l-72 126c57 39 145 67 224 67c73 0 124 -17 162 -45zM210 171c0 -28 28 -40 56 -40s56 12 56 40c0 27 -26 42 -57 42c-29 0 -55 -15 -55 -42zM518 331h130c-2 24 -22 57 -65 57c-46 0 -63 -37 -65 -57z" />
    <glyph glyph-name="commaaccent" unicode="&#xf6c3;" horiz-adv-x="355" 
d="M78 -118c0 52 43 93 96 93c59 0 101 -43 101 -110c0 -79 -49 -162 -118 -205l-62 69c21 14 45 36 54 63c-49 12 -71 52 -71 90z" />
    <glyph glyph-name="aacute" unicode="&#xe1;" horiz-adv-x="551" 
d="M16 164c0 106 81 176 209 176c36 0 73 -9 94 -20v16c0 21 -20 42 -69 42c-42 0 -86 -11 -129 -30l-72 126c57 39 145 67 224 67c191 0 240 -104 240 -227v-314h-174l-11 29c-29 -30 -74 -42 -125 -42c-95 0 -187 59 -187 177zM210 171c0 -28 28 -40 56 -40s56 12 56 40
c0 27 -26 42 -57 42c-29 0 -55 -15 -55 -42zM188 574l65 151h200l-110 -151h-155z" />
    <glyph glyph-name="aring" unicode="&#xe5;" horiz-adv-x="551" 
d="M16 164c0 106 81 176 209 176c36 0 73 -9 94 -20v16c0 21 -20 42 -69 42c-42 0 -86 -11 -129 -30l-72 126c57 39 145 67 224 67c191 0 240 -104 240 -227v-314h-174l-11 29c-29 -30 -74 -42 -125 -42c-95 0 -187 59 -187 177zM210 171c0 -28 28 -40 56 -40s56 12 56 40
c0 27 -26 42 -57 42c-29 0 -55 -15 -55 -42zM153 664c0 66 55 111 124 111c71 0 125 -45 125 -110c0 -66 -54 -111 -125 -111c-69 0 -124 45 -124 110zM243 665c0 -22 14 -37 35 -37s35 15 35 37c0 21 -14 36 -35 36s-35 -15 -35 -36z" />
    <glyph glyph-name="atilde" unicode="&#xe3;" horiz-adv-x="551" 
d="M16 164c0 106 81 176 209 176c36 0 73 -9 94 -20v16c0 21 -20 42 -69 42c-42 0 -86 -11 -129 -30l-72 126c57 39 145 67 224 67c191 0 240 -104 240 -227v-314h-174l-11 29c-29 -30 -74 -42 -125 -42c-95 0 -187 59 -187 177zM210 171c0 -28 28 -40 56 -40s56 12 56 40
c0 27 -26 42 -57 42c-29 0 -55 -15 -55 -42zM345 574c-55 0 -94 30 -124 30c-18 0 -28 -11 -28 -31h-116c0 94 49 159 127 159c55 0 94 -30 124 -30c18 0 28 11 28 31h116c0 -94 -49 -159 -127 -159z" />
    <glyph glyph-name="adieresis" unicode="&#xe4;" horiz-adv-x="551" 
d="M16 164c0 106 81 176 209 176c36 0 73 -9 94 -20v16c0 21 -20 42 -69 42c-42 0 -86 -11 -129 -30l-72 126c57 39 145 67 224 67c191 0 240 -104 240 -227v-314h-174l-11 29c-29 -30 -74 -42 -125 -42c-95 0 -187 59 -187 177zM210 171c0 -28 28 -40 56 -40s56 12 56 40
c0 27 -26 42 -57 42c-29 0 -55 -15 -55 -42zM302 653c0 46 33 84 85 84c50 0 86 -38 86 -84s-36 -84 -86 -84c-52 0 -85 38 -85 84zM76 653c0 46 35 84 86 84s87 -38 87 -84s-36 -84 -87 -84s-86 38 -86 84z" />
    <glyph glyph-name="acircumflex" unicode="&#xe2;" horiz-adv-x="551" 
d="M16 164c0 106 81 176 209 176c36 0 73 -9 94 -20v16c0 21 -20 42 -69 42c-42 0 -86 -11 -129 -30l-72 126c57 39 145 67 224 67c191 0 240 -104 240 -227v-314h-174l-11 29c-29 -30 -74 -42 -125 -42c-95 0 -187 59 -187 177zM210 171c0 -28 28 -40 56 -40s56 12 56 40
c0 27 -26 42 -57 42c-29 0 -55 -15 -55 -42zM310 574l-37 61l-37 -61h-159l98 151h196l98 -151h-159z" />
    <glyph glyph-name="agrave" unicode="&#xe0;" horiz-adv-x="551" 
d="M16 164c0 106 81 176 209 176c36 0 73 -9 94 -20v16c0 21 -20 42 -69 42c-42 0 -86 -11 -129 -30l-72 126c57 39 145 67 224 67c191 0 240 -104 240 -227v-314h-174l-11 29c-29 -30 -74 -42 -125 -42c-95 0 -187 59 -187 177zM210 171c0 -28 28 -40 56 -40s56 12 56 40
c0 27 -26 42 -57 42c-29 0 -55 -15 -55 -42zM314 725l65 -151h-155l-110 151h200z" />
    <glyph glyph-name="eacute" unicode="&#xe9;" horiz-adv-x="566" 
d="M19 271c0 150 103 270 265 270c174 0 266 -108 266 -293c0 -11 -1 -25 -2 -35h-330c10 -41 44 -64 92 -64c49 0 85 32 95 47l132 -92c-12 -26 -86 -117 -230 -117c-181 0 -288 130 -288 284zM223 331h130c-2 24 -22 57 -65 57c-46 0 -63 -37 -65 -57zM193 574l65 151h200
l-110 -151h-155z" />
    <glyph glyph-name="egrave" unicode="&#xe8;" horiz-adv-x="566" 
d="M19 271c0 150 103 270 265 270c174 0 266 -108 266 -293c0 -11 -1 -25 -2 -35h-330c10 -41 44 -64 92 -64c49 0 85 32 95 47l132 -92c-12 -26 -86 -117 -230 -117c-181 0 -288 130 -288 284zM223 331h130c-2 24 -22 57 -65 57c-46 0 -63 -37 -65 -57zM319 725l65 -151
h-155l-110 151h200z" />
    <glyph glyph-name="ecircumflex" unicode="&#xea;" horiz-adv-x="566" 
d="M19 271c0 150 103 270 265 270c174 0 266 -108 266 -293c0 -11 -1 -25 -2 -35h-330c10 -41 44 -64 92 -64c49 0 85 32 95 47l132 -92c-12 -26 -86 -117 -230 -117c-181 0 -288 130 -288 284zM223 331h130c-2 24 -22 57 -65 57c-46 0 -63 -37 -65 -57zM329 574l-37 61
l-37 -61h-159l98 151h196l98 -151h-159z" />
    <glyph glyph-name="edieresis" unicode="&#xeb;" horiz-adv-x="566" 
d="M19 271c0 150 103 270 265 270c174 0 266 -108 266 -293c0 -11 -1 -25 -2 -35h-330c10 -41 44 -64 92 -64c49 0 85 32 95 47l132 -92c-12 -26 -86 -117 -230 -117c-181 0 -288 130 -288 284zM223 331h130c-2 24 -22 57 -65 57c-46 0 -63 -37 -65 -57zM314 653
c0 46 33 84 85 84c50 0 86 -38 86 -84s-36 -84 -86 -84c-52 0 -85 38 -85 84zM88 653c0 46 35 84 86 84s87 -38 87 -84s-36 -84 -87 -84s-86 38 -86 84z" />
    <glyph glyph-name="ntilde" unicode="&#xf1;" horiz-adv-x="583" 
d="M365 541c125 0 179 -79 179 -201v-340h-194v311c0 40 -24 59 -56 59c-38 0 -56 -26 -56 -56v-314h-194v528h189v-50c19 27 67 63 132 63zM370 574c-55 0 -94 30 -124 30c-18 0 -28 -11 -28 -31h-116c0 94 49 159 127 159c55 0 94 -30 124 -30c18 0 28 11 28 31h116
c0 -94 -49 -159 -127 -159z" />
    <glyph glyph-name="oacute" unicode="&#xf3;" horiz-adv-x="624" 
d="M606 264c0 -160 -127 -277 -294 -277s-294 117 -294 277s127 277 294 277s294 -117 294 -277zM212 264c0 -67 42 -110 100 -110s100 43 100 110s-42 111 -100 111s-100 -44 -100 -111zM218 574l65 151h200l-110 -151h-155z" />
    <glyph glyph-name="otilde" unicode="&#xf5;" horiz-adv-x="624" 
d="M606 264c0 -160 -127 -277 -294 -277s-294 117 -294 277s127 277 294 277s294 -117 294 -277zM212 264c0 -67 42 -110 100 -110s100 43 100 110s-42 111 -100 111s-100 -44 -100 -111zM383 574c-55 0 -94 30 -124 30c-18 0 -28 -11 -28 -31h-116c0 94 49 159 127 159
c55 0 94 -30 124 -30c18 0 28 11 28 31h116c0 -94 -49 -159 -127 -159z" />
    <glyph glyph-name="odieresis" unicode="&#xf6;" horiz-adv-x="624" 
d="M606 264c0 -160 -127 -277 -294 -277s-294 117 -294 277s127 277 294 277s294 -117 294 -277zM212 264c0 -67 42 -110 100 -110s100 43 100 110s-42 111 -100 111s-100 -44 -100 -111zM344 653c0 46 33 84 85 84c50 0 86 -38 86 -84s-36 -84 -86 -84c-52 0 -85 38 -85 84
zM118 653c0 46 35 84 86 84s87 -38 87 -84s-36 -84 -87 -84s-86 38 -86 84z" />
    <glyph glyph-name="ocircumflex" unicode="&#xf4;" horiz-adv-x="624" 
d="M606 264c0 -160 -127 -277 -294 -277s-294 117 -294 277s127 277 294 277s294 -117 294 -277zM212 264c0 -67 42 -110 100 -110s100 43 100 110s-42 111 -100 111s-100 -44 -100 -111zM351 574l-37 61l-37 -61h-159l98 151h196l98 -151h-159z" />
    <glyph glyph-name="ograve" unicode="&#xf2;" horiz-adv-x="624" 
d="M606 264c0 -160 -127 -277 -294 -277s-294 117 -294 277s127 277 294 277s294 -117 294 -277zM212 264c0 -67 42 -110 100 -110s100 43 100 110s-42 111 -100 111s-100 -44 -100 -111zM348 725l65 -151h-155l-110 151h200z" />
    <glyph glyph-name="uacute" unicode="&#xfa;" horiz-adv-x="579" 
d="M219 -13c-125 0 -179 79 -179 201v340h194v-311c0 -40 24 -59 56 -59c38 0 56 26 56 56v314h194v-528h-189v50c-19 -27 -67 -63 -132 -63zM196 574l65 151h200l-110 -151h-155z" />
    <glyph glyph-name="udieresis" unicode="&#xfc;" horiz-adv-x="579" 
d="M219 -13c-125 0 -179 79 -179 201v340h194v-311c0 -40 24 -59 56 -59c38 0 56 26 56 56v314h194v-528h-189v50c-19 -27 -67 -63 -132 -63zM318 653c0 46 33 84 85 84c50 0 86 -38 86 -84s-36 -84 -86 -84c-52 0 -85 38 -85 84zM92 653c0 46 35 84 86 84s87 -38 87 -84
s-36 -84 -87 -84s-86 38 -86 84z" />
    <glyph glyph-name="ucircumflex" unicode="&#xfb;" horiz-adv-x="579" 
d="M219 -13c-125 0 -179 79 -179 201v340h194v-311c0 -40 24 -59 56 -59c38 0 56 26 56 56v314h194v-528h-189v50c-19 -27 -67 -63 -132 -63zM330 574l-37 61l-37 -61h-159l98 151h196l98 -151h-159z" />
    <glyph glyph-name="ugrave" unicode="&#xf9;" horiz-adv-x="579" 
d="M219 -13c-125 0 -179 79 -179 201v340h194v-311c0 -40 24 -59 56 -59c38 0 56 26 56 56v314h194v-528h-189v50c-19 -27 -67 -63 -132 -63zM324 725l65 -151h-155l-110 151h200z" />
    <glyph glyph-name="Adieresis" unicode="&#xc4;" horiz-adv-x="702" 
d="M456 134h-210l-42 -134h-200l242 700h210l242 -700h-200zM409 293l-58 201l-58 -201h116zM373 813c0 46 33 84 85 84c50 0 86 -38 86 -84s-36 -84 -86 -84c-52 0 -85 38 -85 84zM147 813c0 46 35 84 86 84s87 -38 87 -84s-36 -84 -87 -84s-86 38 -86 84z" />
    <glyph glyph-name="Odieresis" unicode="&#xd6;" horiz-adv-x="802" 
d="M401 -13c-231 0 -378 159 -378 364c0 202 147 362 378 362s378 -160 378 -362c0 -205 -147 -364 -378 -364zM401 531c-102 0 -170 -78 -170 -180c0 -105 68 -182 170 -182s170 77 170 182c0 102 -68 180 -170 180zM429 813c0 46 33 84 85 84c50 0 86 -38 86 -84
s-36 -84 -86 -84c-52 0 -85 38 -85 84zM203 813c0 46 35 84 86 84s87 -38 87 -84s-36 -84 -87 -84s-86 38 -86 84z" />
    <glyph glyph-name="Udieresis" unicode="&#xdc;" horiz-adv-x="726" 
d="M363 -13c-197 0 -305 118 -305 287v426h199v-427c0 -65 41 -106 106 -106s106 41 106 106v427h199v-426c0 -169 -108 -287 -305 -287zM394 813c0 46 33 84 85 84c50 0 86 -38 86 -84s-36 -84 -86 -84c-52 0 -85 38 -85 84zM168 813c0 46 35 84 86 84s87 -38 87 -84
s-36 -84 -87 -84s-86 38 -86 84z" />
    <glyph glyph-name="Edieresis" unicode="&#xcb;" horiz-adv-x="498" 
d="M58 0v700h392v-174h-193v-86h163v-173h-163v-93h201v-174h-400zM273 813c0 46 33 84 85 84c50 0 86 -38 86 -84s-36 -84 -86 -84c-52 0 -85 38 -85 84zM47 813c0 46 35 84 86 84s87 -38 87 -84s-36 -84 -87 -84s-86 38 -86 84z" />
    <glyph glyph-name="Idieresis" unicode="&#xcf;" horiz-adv-x="316" 
d="M58 0v700h199v-700h-199zM186 813c0 46 33 84 85 84c50 0 86 -38 86 -84s-36 -84 -86 -84c-52 0 -85 38 -85 84zM-40 813c0 46 35 84 86 84s87 -38 87 -84s-36 -84 -87 -84s-86 38 -86 84z" />
    <glyph glyph-name="Aring" unicode="&#xc5;" horiz-adv-x="702" 
d="M456 134h-210l-42 -134h-200l242 700h210l242 -700h-200zM409 293l-58 201l-58 -201h116zM225 835c0 66 55 111 124 111c71 0 125 -45 125 -110c0 -66 -54 -111 -125 -111c-69 0 -124 45 -124 110zM315 836c0 -22 14 -37 35 -37s35 15 35 37c0 21 -14 36 -35 36
s-35 -15 -35 -36z" />
    <glyph glyph-name="Eacute" unicode="&#xc9;" horiz-adv-x="498" 
d="M58 0v700h392v-174h-193v-86h163v-173h-163v-93h201v-174h-400zM158 727l65 151h200l-110 -151h-155z" />
    <glyph glyph-name="Aacute" unicode="&#xc1;" horiz-adv-x="702" 
d="M456 134h-210l-42 -134h-200l242 700h210l242 -700h-200zM409 293l-58 201l-58 -201h116zM254 727l65 151h200l-110 -151h-155z" />
    <glyph glyph-name="Uacute" unicode="&#xda;" horiz-adv-x="725" 
d="M363 -13c-197 0 -305 118 -305 287v426h199v-427c0 -65 41 -106 106 -106s106 41 106 106v427h199v-426c0 -169 -108 -287 -305 -287zM274 727l65 151h200l-110 -151h-155z" />
    <glyph glyph-name="Iacute" unicode="&#xcd;" horiz-adv-x="316" 
d="M58 0v700h199v-700h-199zM63 727l65 151h200l-110 -151h-155z" />
    <glyph glyph-name="Oacute" unicode="&#xd3;" horiz-adv-x="803" 
d="M401 -13c-231 0 -378 159 -378 364c0 202 147 362 378 362s378 -160 378 -362c0 -205 -147 -364 -378 -364zM401 531c-102 0 -170 -78 -170 -180c0 -105 68 -182 170 -182s170 77 170 182c0 102 -68 180 -170 180zM309 727l65 151h200l-110 -151h-155z" />
    <glyph glyph-name="ydieresis" unicode="&#xff;" horiz-adv-x="579" 
d="M313 -179h-182l71 199l-196 508h208l76 -273l81 273h202zM318 653c0 46 33 84 85 84c50 0 86 -38 86 -84s-36 -84 -86 -84c-52 0 -85 38 -85 84zM92 653c0 46 35 84 86 84s87 -38 87 -84s-36 -84 -87 -84s-86 38 -86 84z" />
    <glyph glyph-name="Ydieresis" unicode="&#x178;" horiz-adv-x="644" 
d="M223 0v313l-217 387h223l93 -211l97 211h219l-217 -387v-313h-198zM350 809c0 46 33 84 85 84c50 0 86 -38 86 -84s-36 -84 -86 -84c-52 0 -85 38 -85 84zM124 809c0 46 35 84 86 84s87 -38 87 -84s-36 -84 -87 -84s-86 38 -86 84z" />
    <glyph glyph-name="Agrave" unicode="&#xc0;" horiz-adv-x="702" 
d="M456 134h-210l-42 -134h-200l242 700h210l242 -700h-200zM409 293l-58 201l-58 -201h116zM373 878l65 -151h-155l-110 151h200z" />
    <glyph glyph-name="Ograve" unicode="&#xd2;" horiz-adv-x="803" 
d="M401 -13c-231 0 -378 159 -378 364c0 202 147 362 378 362s378 -160 378 -362c0 -205 -147 -364 -378 -364zM401 531c-102 0 -170 -78 -170 -180c0 -105 68 -182 170 -182s170 77 170 182c0 102 -68 180 -170 180zM430 878l65 -151h-155l-110 151h200z" />
    <glyph glyph-name="Igrave" unicode="&#xcc;" horiz-adv-x="316" 
d="M58 0v700h199v-700h-199zM200 878l65 -151h-155l-110 151h200z" />
    <glyph glyph-name="Egrave" unicode="&#xc8;" horiz-adv-x="498" 
d="M58 0v700h392v-174h-193v-86h163v-173h-163v-93h201v-174h-400zM295 878l65 -151h-155l-110 151h200z" />
    <glyph glyph-name="Ugrave" unicode="&#xd9;" horiz-adv-x="725" 
d="M363 -13c-197 0 -305 118 -305 287v426h199v-427c0 -65 41 -106 106 -106s106 41 106 106v427h199v-426c0 -169 -108 -287 -305 -287zM390 878l65 -151h-155l-110 151h200z" />
    <glyph glyph-name="Ntilde" unicode="&#xd1;" horiz-adv-x="740" 
d="M58 0v700h203l225 -397v397h196v-700h-198l-231 391v-391h-195zM447 731c-55 0 -94 30 -124 30c-18 0 -28 -11 -28 -31h-116c0 94 49 159 127 159c55 0 94 -30 124 -30c18 0 28 11 28 31h116c0 -94 -49 -159 -127 -159z" />
    <glyph glyph-name="Atilde" unicode="&#xc3;" horiz-adv-x="702" 
d="M456 134h-210l-42 -134h-200l242 700h210l242 -700h-200zM409 293l-58 201l-58 -201h116zM422 731c-55 0 -94 30 -124 30c-18 0 -28 -11 -28 -31h-116c0 94 49 159 127 159c55 0 94 -30 124 -30c18 0 28 11 28 31h116c0 -94 -49 -159 -127 -159z" />
    <glyph glyph-name="Otilde" unicode="&#xd5;" horiz-adv-x="802" 
d="M401 -13c-231 0 -378 159 -378 364c0 202 147 362 378 362s378 -160 378 -362c0 -205 -147 -364 -378 -364zM401 531c-102 0 -170 -78 -170 -180c0 -105 68 -182 170 -182s170 77 170 182c0 102 -68 180 -170 180zM474 731c-55 0 -94 30 -124 30c-18 0 -28 -11 -28 -31
h-116c0 94 49 159 127 159c55 0 94 -30 124 -30c18 0 28 11 28 31h116c0 -94 -49 -159 -127 -159z" />
    <glyph glyph-name="Acircumflex" unicode="&#xc2;" horiz-adv-x="702" 
d="M456 134h-210l-42 -134h-200l242 700h210l242 -700h-200zM409 293l-58 201l-58 -201h116zM389 729l-37 61l-37 -61h-159l98 151h196l98 -151h-159z" />
    <glyph glyph-name="Ecircumflex" unicode="&#xca;" horiz-adv-x="498" 
d="M58 0v700h392v-174h-193v-86h163v-173h-163v-93h201v-174h-400zM293 729l-37 61l-37 -61h-159l98 151h196l98 -151h-159z" />
    <glyph glyph-name="Icircumflex" unicode="&#xce;" horiz-adv-x="316" 
d="M58 0v700h199v-700h-199zM196 729l-37 61l-37 -61h-159l98 151h196l98 -151h-159z" />
    <glyph glyph-name="Ocircumflex" unicode="&#xd4;" horiz-adv-x="803" 
d="M401 -13c-231 0 -378 159 -378 364c0 202 147 362 378 362s378 -160 378 -362c0 -205 -147 -364 -378 -364zM401 531c-102 0 -170 -78 -170 -180c0 -105 68 -182 170 -182s170 77 170 182c0 102 -68 180 -170 180zM436 729l-37 61l-37 -61h-159l98 151h196l98 -151h-159z
" />
    <glyph glyph-name="Ucircumflex" unicode="&#xdb;" horiz-adv-x="725" 
d="M363 -13c-197 0 -305 118 -305 287v426h199v-427c0 -65 41 -106 106 -106s106 41 106 106v427h199v-426c0 -169 -108 -287 -305 -287zM400 729l-37 61l-37 -61h-159l98 151h196l98 -151h-159z" />
    <glyph glyph-name="Yacute" unicode="&#xdd;" horiz-adv-x="644" 
d="M223 0v313l-217 387h223l93 -211l97 211h219l-217 -387v-313h-198zM236 727l65 151h200l-110 -151h-155z" />
    <glyph glyph-name="Tcommaaccent" unicode="&#x162;" horiz-adv-x="521" 
d="M161 0v526h-143v174h487v-174h-145v-526h-199zM163 -118c0 52 43 93 96 93c59 0 101 -43 101 -110c0 -79 -49 -162 -118 -205l-62 69c21 14 45 36 54 63c-49 12 -71 52 -71 90z" />
    <glyph glyph-name="Tcommaaccent" unicode="&#x21a;" horiz-adv-x="521" 
d="M161 0v526h-143v174h487v-174h-145v-526h-199zM163 -118c0 52 43 93 96 93c59 0 101 -43 101 -110c0 -79 -49 -162 -118 -205l-62 69c21 14 45 36 54 63c-49 12 -71 52 -71 90z" />
    <glyph glyph-name="tcommaaccent" unicode="&#x163;" horiz-adv-x="379" 
d="M70 528v111h189v-111h85v-153h-85v-173c0 -37 39 -42 69 -42c7 0 19 1 19 1v-163s-22 -6 -70 -6c-136 0 -212 66 -212 208v175h-50v153h55zM108 -118c0 52 43 93 96 93c59 0 101 -43 101 -110c0 -79 -49 -162 -118 -205l-62 69c21 14 45 36 54 63c-49 12 -71 52 -71 90z
" />
    <glyph glyph-name="tcommaaccent" unicode="&#x21b;" horiz-adv-x="379" 
d="M70 528v111h189v-111h85v-153h-85v-173c0 -37 39 -42 69 -42c7 0 19 1 19 1v-163s-22 -6 -70 -6c-136 0 -212 66 -212 208v175h-50v153h55zM108 -118c0 52 43 93 96 93c59 0 101 -43 101 -110c0 -79 -49 -162 -118 -205l-62 69c21 14 45 36 54 63c-49 12 -71 52 -71 90z
" />
    <glyph glyph-name="yacute" unicode="&#xfd;" horiz-adv-x="579" 
d="M313 -179h-182l71 199l-196 508h208l76 -273l81 273h202zM201 574l65 151h200l-110 -151h-155z" />
    <glyph glyph-name="Amacron" unicode="&#x100;" horiz-adv-x="702" 
d="M456 134h-210l-42 -134h-200l242 700h210l242 -700h-200zM409 293l-58 201l-58 -201h116zM201 741v134h297v-134h-297z" />
    <glyph glyph-name="amacron" unicode="&#x101;" horiz-adv-x="551" 
d="M16 164c0 106 81 176 209 176c36 0 73 -9 94 -20v16c0 21 -20 42 -69 42c-42 0 -86 -11 -129 -30l-72 126c57 39 145 67 224 67c191 0 240 -104 240 -227v-314h-174l-11 29c-29 -30 -74 -42 -125 -42c-95 0 -187 59 -187 177zM210 171c0 -28 28 -40 56 -40s56 12 56 40
c0 27 -26 42 -57 42c-29 0 -55 -15 -55 -42zM133 581v134h297v-134h-297z" />
    <glyph glyph-name="Abreve" unicode="&#x102;" horiz-adv-x="702" 
d="M456 134h-210l-42 -134h-200l242 700h210l242 -700h-200zM409 293l-58 201l-58 -201h116zM349 737c-111 0 -176 64 -176 158h134c0 -23 9 -52 42 -52c34 0 43 29 43 52h134c0 -94 -65 -158 -177 -158z" />
    <glyph glyph-name="abreve" unicode="&#x103;" horiz-adv-x="551" 
d="M16 164c0 106 81 176 209 176c36 0 73 -9 94 -20v16c0 21 -20 42 -69 42c-42 0 -86 -11 -129 -30l-72 126c57 39 145 67 224 67c191 0 240 -104 240 -227v-314h-174l-11 29c-29 -30 -74 -42 -125 -42c-95 0 -187 59 -187 177zM210 171c0 -28 28 -40 56 -40s56 12 56 40
c0 27 -26 42 -57 42c-29 0 -55 -15 -55 -42zM279 576c-111 0 -176 64 -176 158h134c0 -23 9 -52 42 -52c34 0 43 29 43 52h134c0 -94 -65 -158 -177 -158z" />
    <glyph glyph-name="scommaaccent" unicode="&#x219;" horiz-adv-x="460" 
d="M10 71l106 106c31 -21 70 -37 113 -37c26 0 36 9 36 19c0 44 -238 25 -238 211c0 104 94 171 216 171c98 0 162 -44 199 -87l-125 -99c-19 17 -44 34 -78 34c-21 0 -30 -9 -30 -18c0 -52 241 -31 241 -206c0 -117 -91 -178 -220 -178c-99 0 -186 44 -220 84zM140 -118
c0 52 43 93 96 93c59 0 101 -43 101 -110c0 -79 -49 -162 -118 -205l-62 69c21 14 45 36 54 63c-49 12 -71 52 -71 90z" />
    <glyph glyph-name="Scommaaccent" unicode="&#x218;" horiz-adv-x="546" 
d="M12 157l166 82c20 -37 60 -69 96 -69c31 0 44 13 44 31c0 71 -285 73 -285 296c0 133 97 216 242 216c161 0 220 -115 239 -170l-165 -74c-14 29 -31 64 -79 64c-24 0 -38 -13 -38 -32c0 -78 287 -74 287 -285c0 -134 -89 -229 -251 -229c-165 0 -238 121 -256 170z
M172 -118c0 52 43 93 96 93c59 0 101 -43 101 -110c0 -79 -49 -162 -118 -205l-62 69c21 14 45 36 54 63c-49 12 -71 52 -71 90z" />
    <glyph glyph-name="Cacute" unicode="&#x106;" horiz-adv-x="635" 
d="M23 351c0 201 148 362 375 362c84 0 161 -25 212 -60l-55 -174c-33 27 -81 52 -147 52c-106 0 -177 -78 -177 -180c0 -104 71 -182 177 -182c66 0 114 25 147 52l55 -174c-51 -35 -128 -60 -212 -60c-227 0 -375 161 -375 364zM290 727l65 151h200l-110 -151h-155z" />
    <glyph glyph-name="zcaron" unicode="&#x17e;" horiz-adv-x="482" 
d="M27 0v112l182 258h-179v158h425v-113l-185 -257h186v-158h-429zM248 664l37 61h159l-98 -151h-196l-98 151h159z" />
    <glyph glyph-name="Zcaron" unicode="&#x17d;" horiz-adv-x="624" 
d="M31 0v122l288 406h-281v172h550v-121l-292 -407h295v-172h-560zM312 819l37 61h159l-98 -151h-196l-98 151h159z" />
    <glyph glyph-name="cacute" unicode="&#x107;" horiz-adv-x="486" 
d="M464 499l-51 -160c-32 24 -64 32 -93 32c-72 0 -109 -50 -109 -108c0 -68 49 -109 116 -109c28 0 64 10 88 28l50 -155c-41 -27 -97 -40 -155 -40c-174 0 -292 114 -292 276c0 163 127 278 294 278c62 0 118 -18 152 -42zM205 574l65 151h200l-110 -151h-155z" />
    <glyph glyph-name="Ccircumflex" unicode="&#x108;" horiz-adv-x="635" 
d="M23 351c0 201 148 362 375 362c84 0 161 -25 212 -60l-55 -174c-33 27 -81 52 -147 52c-106 0 -177 -78 -177 -180c0 -104 71 -182 177 -182c66 0 114 25 147 52l55 -174c-51 -35 -128 -60 -212 -60c-227 0 -375 161 -375 364zM434 729l-37 61l-37 -61h-159l98 151h196
l98 -151h-159z" />
    <glyph glyph-name="ccircumflex" unicode="&#x109;" horiz-adv-x="486" 
d="M464 499l-51 -160c-32 24 -64 32 -93 32c-72 0 -109 -50 -109 -108c0 -68 49 -109 116 -109c28 0 64 10 88 28l50 -155c-41 -27 -97 -40 -155 -40c-174 0 -292 114 -292 276c0 163 127 278 294 278c62 0 118 -18 152 -42zM338 574l-37 61l-37 -61h-159l98 151h196
l98 -151h-159z" />
    <glyph glyph-name="dcaron" unicode="&#x10f;" horiz-adv-x="641" 
d="M641 549l7 174h139l-50 -174h-96zM598 723v-723h-180v34c-20 -20 -66 -47 -135 -47c-154 0 -262 115 -262 277c0 163 96 277 249 277c68 0 115 -30 134 -46v228h194zM410 264c0 70 -39 111 -97 111c-62 0 -98 -46 -98 -111c0 -67 37 -110 98 -110c64 0 97 50 97 110z" />
    <glyph glyph-name="Cdotaccent" unicode="&#x10a;" horiz-adv-x="635" 
d="M23 351c0 201 148 362 375 362c84 0 161 -25 212 -60l-55 -174c-33 27 -81 52 -147 52c-106 0 -177 -78 -177 -180c0 -104 71 -182 177 -182c66 0 114 25 147 52l55 -174c-51 -35 -128 -60 -212 -60c-227 0 -375 161 -375 364zM312 818c0 47 38 85 85 85s85 -38 85 -85
s-38 -85 -85 -85s-85 38 -85 85z" />
    <glyph glyph-name="cdotaccent" unicode="&#x10b;" horiz-adv-x="486" 
d="M464 499l-51 -160c-32 24 -64 32 -93 32c-72 0 -109 -50 -109 -108c0 -68 49 -109 116 -109c28 0 64 10 88 28l50 -155c-41 -27 -97 -40 -155 -40c-174 0 -292 114 -292 276c0 163 127 278 294 278c62 0 118 -18 152 -42zM225 655c0 47 38 85 85 85s85 -38 85 -85
s-38 -85 -85 -85s-85 38 -85 85z" />
    <glyph glyph-name="zdotaccent" unicode="&#x17c;" horiz-adv-x="482" 
d="M27 0v112l182 258h-179v158h425v-113l-185 -257h186v-158h-429zM164 655c0 47 38 85 85 85s85 -38 85 -85s-38 -85 -85 -85s-85 38 -85 85z" />
    <glyph glyph-name="Ccaron" unicode="&#x10c;" horiz-adv-x="635" 
d="M23 351c0 201 148 362 375 362c84 0 161 -25 212 -60l-55 -174c-33 27 -81 52 -147 52c-106 0 -177 -78 -177 -180c0 -104 71 -182 177 -182c66 0 114 25 147 52l55 -174c-51 -35 -128 -60 -212 -60c-227 0 -375 161 -375 364zM402 819l37 61h159l-98 -151h-196l-98 151
h159z" />
    <glyph glyph-name="ccaron" unicode="&#x10d;" horiz-adv-x="486" 
d="M464 499l-51 -160c-32 24 -64 32 -93 32c-72 0 -109 -50 -109 -108c0 -68 49 -109 116 -109c28 0 64 10 88 28l50 -155c-41 -27 -97 -40 -155 -40c-174 0 -292 114 -292 276c0 163 127 278 294 278c62 0 118 -18 152 -42zM304 664l37 61h159l-98 -151h-196l-98 151h159z
" />
    <glyph glyph-name="Dcaron" unicode="&#x10e;" horiz-adv-x="684" 
d="M58 0v700h228c225 0 374 -131 374 -350c0 -216 -147 -350 -374 -350h-228zM257 168h25c102 0 171 61 171 182c0 123 -69 182 -171 182h-25v-364zM296 819l37 61h159l-98 -151h-196l-98 151h159z" />
    <glyph glyph-name="Emacron" unicode="&#x112;" horiz-adv-x="498" 
d="M58 0v700h392v-174h-193v-86h163v-173h-163v-93h201v-174h-400zM112 741v134h297v-134h-297z" />
    <glyph glyph-name="emacron" unicode="&#x113;" horiz-adv-x="566" 
d="M19 271c0 150 103 270 265 270c174 0 266 -108 266 -293c0 -11 -1 -25 -2 -35h-330c10 -41 44 -64 92 -64c49 0 85 32 95 47l132 -92c-12 -26 -86 -117 -230 -117c-181 0 -288 130 -288 284zM223 331h130c-2 24 -22 57 -65 57c-46 0 -63 -37 -65 -57zM142 581v134h297
v-134h-297z" />
    <glyph glyph-name="Ebreve" unicode="&#x114;" horiz-adv-x="498" 
d="M58 0v700h392v-174h-193v-86h163v-173h-163v-93h201v-174h-400zM258 737c-111 0 -176 64 -176 158h134c0 -23 9 -52 42 -52c34 0 43 29 43 52h134c0 -94 -65 -158 -177 -158z" />
    <glyph glyph-name="ebreve" unicode="&#x115;" horiz-adv-x="566" 
d="M19 271c0 150 103 270 265 270c174 0 266 -108 266 -293c0 -11 -1 -25 -2 -35h-330c10 -41 44 -64 92 -64c49 0 85 32 95 47l132 -92c-12 -26 -86 -117 -230 -117c-181 0 -288 130 -288 284zM223 331h130c-2 24 -22 57 -65 57c-46 0 -63 -37 -65 -57zM293 576
c-111 0 -176 64 -176 158h134c0 -23 9 -52 42 -52c34 0 43 29 43 52h134c0 -94 -65 -158 -177 -158z" />
    <glyph glyph-name="Edotaccent" unicode="&#x116;" horiz-adv-x="498" 
d="M58 0v700h392v-174h-193v-86h163v-173h-163v-93h201v-174h-400zM175 818c0 47 38 85 85 85s85 -38 85 -85s-38 -85 -85 -85s-85 38 -85 85z" />
    <glyph glyph-name="edotaccent" unicode="&#x117;" horiz-adv-x="566" 
d="M19 271c0 150 103 270 265 270c174 0 266 -108 266 -293c0 -11 -1 -25 -2 -35h-330c10 -41 44 -64 92 -64c49 0 85 32 95 47l132 -92c-12 -26 -86 -117 -230 -117c-181 0 -288 130 -288 284zM223 331h130c-2 24 -22 57 -65 57c-46 0 -63 -37 -65 -57zM204 655
c0 47 38 85 85 85s85 -38 85 -85s-38 -85 -85 -85s-85 38 -85 85z" />
    <glyph glyph-name="Ecaron" unicode="&#x11a;" horiz-adv-x="498" 
d="M58 0v700h392v-174h-193v-86h163v-173h-163v-93h201v-174h-400zM256 819l37 61h159l-98 -151h-196l-98 151h159z" />
    <glyph glyph-name="ecaron" unicode="&#x11b;" horiz-adv-x="566" 
d="M19 271c0 150 103 270 265 270c174 0 266 -108 266 -293c0 -11 -1 -25 -2 -35h-330c10 -41 44 -64 92 -64c49 0 85 32 95 47l132 -92c-12 -26 -86 -117 -230 -117c-181 0 -288 130 -288 284zM223 331h130c-2 24 -22 57 -65 57c-46 0 -63 -37 -65 -57zM289 664l37 61h159
l-98 -151h-196l-98 151h159z" />
    <glyph glyph-name="Gcircumflex" unicode="&#x11c;" horiz-adv-x="767" 
d="M398 -13c-227 0 -375 161 -375 364c0 201 148 362 375 362c163 0 255 -81 293 -127l-126 -128c-26 30 -70 73 -157 73c-106 0 -177 -78 -177 -180c0 -104 74 -182 184 -182c78 0 119 21 134 33v39h-113v163h295v-308c-75 -52 -162 -109 -333 -109zM443 729l-37 61
l-37 -61h-159l98 151h196l98 -151h-159z" />
    <glyph glyph-name="gcircumflex" unicode="&#x11d;" horiz-adv-x="635" 
d="M92 -149l55 146c14 -6 80 -33 145 -33c58 0 113 13 113 56v11c-29 -24 -65 -40 -122 -40c-154 0 -262 113 -262 275c0 163 96 275 249 275c68 0 115 -30 134 -46v33h194v-461c0 -198 -146 -259 -300 -259c-78 0 -158 20 -206 43zM410 266c0 68 -39 109 -97 109
c-62 0 -98 -46 -98 -109c0 -65 37 -108 98 -108c64 0 97 50 97 108zM356 574l-37 61l-37 -61h-159l98 151h196l98 -151h-159z" />
    <glyph glyph-name="Zdotaccent" unicode="&#x17b;" horiz-adv-x="624" 
d="M31 0v122l288 406h-281v172h550v-121l-292 -407h295v-172h-560zM227 818c0 47 38 85 85 85s85 -38 85 -85s-38 -85 -85 -85s-85 38 -85 85z" />
    <glyph glyph-name="zacute" unicode="&#x17a;" horiz-adv-x="482" 
d="M27 0v112l182 258h-179v158h425v-113l-185 -257h186v-158h-429zM146 574l65 151h200l-110 -151h-155z" />
    <glyph glyph-name="Gbreve" unicode="&#x11e;" horiz-adv-x="767" 
d="M398 -13c-227 0 -375 161 -375 364c0 201 148 362 375 362c163 0 255 -81 293 -127l-126 -128c-26 30 -70 73 -157 73c-106 0 -177 -78 -177 -180c0 -104 74 -182 184 -182c78 0 119 21 134 33v39h-113v163h295v-308c-75 -52 -162 -109 -333 -109zM405 737
c-111 0 -176 64 -176 158h134c0 -23 9 -52 42 -52c34 0 43 29 43 52h134c0 -94 -65 -158 -177 -158z" />
    <glyph glyph-name="gbreve" unicode="&#x11f;" horiz-adv-x="635" 
d="M92 -149l55 146c14 -6 80 -33 145 -33c58 0 113 13 113 56v11c-29 -24 -65 -40 -122 -40c-154 0 -262 113 -262 275c0 163 96 275 249 275c68 0 115 -30 134 -46v33h194v-461c0 -198 -146 -259 -300 -259c-78 0 -158 20 -206 43zM410 266c0 68 -39 109 -97 109
c-62 0 -98 -46 -98 -109c0 -65 37 -108 98 -108c64 0 97 50 97 108zM317 576c-111 0 -176 64 -176 158h134c0 -23 9 -52 42 -52c34 0 43 29 43 52h134c0 -94 -65 -158 -177 -158z" />
    <glyph glyph-name="Zacute" unicode="&#x179;" horiz-adv-x="624" 
d="M31 0v122l288 406h-281v172h550v-121l-292 -407h295v-172h-560zM205 727l65 151h200l-110 -151h-155z" />
    <glyph glyph-name="ycircumflex" unicode="&#x177;" horiz-adv-x="579" 
d="M313 -179h-182l71 199l-196 508h208l76 -273l81 273h202zM329 574l-37 61l-37 -61h-159l98 151h196l98 -151h-159z" />
    <glyph glyph-name="Ycircumflex" unicode="&#x176;" horiz-adv-x="644" 
d="M223 0v313l-217 387h223l93 -211l97 211h219l-217 -387v-313h-198zM360 729l-37 61l-37 -61h-159l98 151h196l98 -151h-159z" />
    <glyph glyph-name="wcircumflex" unicode="&#x175;" horiz-adv-x="855" 
d="M487 0l-60 266l-59 -266h-219l-142 528h212l54 -322s1 4 65 322h180c63 -318 64 -322 64 -322l54 322h213l-143 -528h-219zM465 574l-37 61l-37 -61h-159l98 151h196l98 -151h-159z" />
    <glyph glyph-name="Gdotaccent" unicode="&#x120;" horiz-adv-x="767" 
d="M398 -13c-227 0 -375 161 -375 364c0 201 148 362 375 362c163 0 255 -81 293 -127l-126 -128c-26 30 -70 73 -157 73c-106 0 -177 -78 -177 -180c0 -104 74 -182 184 -182c78 0 119 21 134 33v39h-113v163h295v-308c-75 -52 -162 -109 -333 -109zM327 818
c0 47 38 85 85 85s85 -38 85 -85s-38 -85 -85 -85s-85 38 -85 85z" />
    <glyph glyph-name="gdotaccent" unicode="&#x121;" horiz-adv-x="635" 
d="M92 -149l55 146c14 -6 80 -33 145 -33c58 0 113 13 113 56v11c-29 -24 -65 -40 -122 -40c-154 0 -262 113 -262 275c0 163 96 275 249 275c68 0 115 -30 134 -46v33h194v-461c0 -198 -146 -259 -300 -259c-78 0 -158 20 -206 43zM410 266c0 68 -39 109 -97 109
c-62 0 -98 -46 -98 -109c0 -65 37 -108 98 -108c64 0 97 50 97 108zM233 655c0 47 38 85 85 85s85 -38 85 -85s-38 -85 -85 -85s-85 38 -85 85z" />
    <glyph glyph-name="Gcommaaccent" unicode="&#x122;" horiz-adv-x="767" 
d="M398 -13c-227 0 -375 161 -375 364c0 201 148 362 375 362c163 0 255 -81 293 -127l-126 -128c-26 30 -70 73 -157 73c-106 0 -177 -78 -177 -180c0 -104 74 -182 184 -182c78 0 119 21 134 33v39h-113v163h295v-308c-75 -52 -162 -109 -333 -109zM305 -118
c0 52 43 93 96 93c59 0 101 -43 101 -110c0 -79 -49 -162 -118 -205l-62 69c21 14 45 36 54 63c-49 12 -71 52 -71 90z" />
    <glyph glyph-name="Hcircumflex" unicode="&#x124;" horiz-adv-x="736" 
d="M58 0v700h199v-263h222v263h199v-700h-199v262h-222v-262h-199zM410 729l-37 61l-37 -61h-159l98 151h196l98 -151h-159z" />
    <glyph glyph-name="hcircumflex" unicode="&#x125;" horiz-adv-x="585" 
d="M362 541c138 0 184 -121 184 -243v-298h-194v311c0 40 -25 59 -57 59c-38 0 -57 -26 -57 -56v-314h-194v723h194v-239c21 26 64 57 124 57zM345 748l-37 61l-37 -61h-159l98 151h196l98 -151h-159z" />
    <glyph glyph-name="Hbar" unicode="&#x126;" horiz-adv-x="736" 
d="M58 0v507h-55v127h55v66h199v-66h222v66h199v-66h55v-127h-55v-507h-199v262h-222v-262h-199zM257 437h222v70h-222v-70z" />
    <glyph glyph-name="Wcircumflex" unicode="&#x174;" horiz-adv-x="1028" 
d="M614 0l-100 402l-100 -402h-226l-181 700h213l93 -465l112 465h178l112 -465l93 465h213l-182 -700h-225zM552 729l-37 61l-37 -61h-159l98 151h196l98 -151h-159z" />
    <glyph glyph-name="uhungarumlaut" unicode="&#x171;" horiz-adv-x="579" 
d="M219 -13c-125 0 -179 79 -179 201v340h194v-311c0 -40 24 -59 56 -59c38 0 56 26 56 56v314h194v-528h-189v50c-19 -27 -67 -63 -132 -63zM91 574l65 151h190l-110 -151h-145zM310 574l65 151h190l-110 -151h-145z" />
    <glyph glyph-name="Uhungarumlaut" unicode="&#x170;" horiz-adv-x="726" 
d="M363 -13c-197 0 -305 118 -305 287v426h199v-427c0 -65 41 -106 106 -106s106 41 106 106v427h199v-426c0 -169 -108 -287 -305 -287zM165 727l65 151h190l-110 -151h-145zM384 727l65 151h190l-110 -151h-145z" />
    <glyph glyph-name="Tcaron" unicode="&#x164;" horiz-adv-x="521" 
d="M161 0v526h-143v174h487v-174h-145v-526h-199zM265 819l37 61h159l-98 -151h-196l-98 151h159z" />
    <glyph glyph-name="uring" unicode="&#x16f;" horiz-adv-x="579" 
d="M219 -13c-125 0 -179 79 -179 201v340h194v-311c0 -40 24 -59 56 -59c38 0 56 26 56 56v314h194v-528h-189v50c-19 -27 -67 -63 -132 -63zM171 664c0 66 55 111 124 111c71 0 125 -45 125 -110c0 -66 -54 -111 -125 -111c-69 0 -124 45 -124 110zM261 665
c0 -22 14 -37 35 -37s35 15 35 37c0 21 -14 36 -35 36s-35 -15 -35 -36z" />
    <glyph glyph-name="tcaron" unicode="&#x165;" horiz-adv-x="379" 
d="M285 549l7 174h139l-50 -174h-96zM70 528v111h189v-111h85v-153h-85v-173c0 -37 39 -42 69 -42c7 0 19 1 19 1v-163s-22 -6 -70 -6c-136 0 -212 66 -212 208v175h-50v153h55z" />
    <glyph glyph-name="Uring" unicode="&#x16e;" horiz-adv-x="726" 
d="M363 -13c-197 0 -305 118 -305 287v426h199v-427c0 -65 41 -106 106 -106s106 41 106 106v427h199v-426c0 -169 -108 -287 -305 -287zM242 835c0 66 55 111 124 111c71 0 125 -45 125 -110c0 -66 -54 -111 -125 -111c-69 0 -124 45 -124 110zM332 836
c0 -22 14 -37 35 -37s35 15 35 37c0 21 -14 36 -35 36s-35 -15 -35 -36z" />
    <glyph glyph-name="ubreve" unicode="&#x16d;" horiz-adv-x="579" 
d="M219 -13c-125 0 -179 79 -179 201v340h194v-311c0 -40 24 -59 56 -59c38 0 56 26 56 56v314h194v-528h-189v50c-19 -27 -67 -63 -132 -63zM294 576c-111 0 -176 64 -176 158h134c0 -23 9 -52 42 -52c34 0 43 29 43 52h134c0 -94 -65 -158 -177 -158z" />
    <glyph glyph-name="Ubreve" unicode="&#x16c;" horiz-adv-x="726" 
d="M363 -13c-197 0 -305 118 -305 287v426h199v-427c0 -65 41 -106 106 -106s106 41 106 106v427h199v-426c0 -169 -108 -287 -305 -287zM371 737c-111 0 -176 64 -176 158h134c0 -23 9 -52 42 -52c34 0 43 29 43 52h134c0 -94 -65 -158 -177 -158z" />
    <glyph glyph-name="umacron" unicode="&#x16b;" horiz-adv-x="579" 
d="M219 -13c-125 0 -179 79 -179 201v340h194v-311c0 -40 24 -59 56 -59c38 0 56 26 56 56v314h194v-528h-189v50c-19 -27 -67 -63 -132 -63zM146 581v134h297v-134h-297z" />
    <glyph glyph-name="Umacron" unicode="&#x16a;" horiz-adv-x="726" 
d="M363 -13c-197 0 -305 118 -305 287v426h199v-427c0 -65 41 -106 106 -106s106 41 106 106v427h199v-426c0 -169 -108 -287 -305 -287zM217 741v134h297v-134h-297z" />
    <glyph glyph-name="utilde" unicode="&#x169;" horiz-adv-x="579" 
d="M219 -13c-125 0 -179 79 -179 201v340h194v-311c0 -40 24 -59 56 -59c38 0 56 26 56 56v314h194v-528h-189v50c-19 -27 -67 -63 -132 -63zM363 574c-55 0 -94 30 -124 30c-18 0 -28 -11 -28 -31h-116c0 94 49 159 127 159c55 0 94 -30 124 -30c18 0 28 11 28 31h116
c0 -94 -49 -159 -127 -159z" />
    <glyph glyph-name="Utilde" unicode="&#x168;" horiz-adv-x="726" 
d="M363 -13c-197 0 -305 118 -305 287v426h199v-427c0 -65 41 -106 106 -106s106 41 106 106v427h199v-426c0 -169 -108 -287 -305 -287zM440 731c-55 0 -94 30 -124 30c-18 0 -28 -11 -28 -31h-116c0 94 49 159 127 159c55 0 94 -30 124 -30c18 0 28 11 28 31h116
c0 -94 -49 -159 -127 -159z" />
    <glyph glyph-name="Tbar" unicode="&#x166;" horiz-adv-x="521" 
d="M53 281v139h108v106h-143v174h487v-174h-145v-106h108v-139h-108v-281h-199v281h-108z" />
    <glyph glyph-name="scaron" unicode="&#x161;" horiz-adv-x="460" 
d="M10 71l106 106c31 -21 70 -37 113 -37c26 0 36 9 36 19c0 44 -238 25 -238 211c0 104 94 171 216 171c98 0 162 -44 199 -87l-125 -99c-19 17 -44 34 -78 34c-21 0 -30 -9 -30 -18c0 -52 241 -31 241 -206c0 -117 -91 -178 -220 -178c-99 0 -186 44 -220 84zM247 664
l37 61h159l-98 -151h-196l-98 151h159z" />
    <glyph glyph-name="Scaron" unicode="&#x160;" horiz-adv-x="546" 
d="M12 157l166 82c20 -37 60 -69 96 -69c31 0 44 13 44 31c0 71 -285 73 -285 296c0 133 97 216 242 216c161 0 220 -115 239 -170l-165 -74c-14 29 -31 64 -79 64c-24 0 -38 -13 -38 -32c0 -78 287 -74 287 -285c0 -134 -89 -229 -251 -229c-165 0 -238 121 -256 170z
M277 819l37 61h159l-98 -151h-196l-98 151h159z" />
    <glyph glyph-name="Itilde" unicode="&#x128;" horiz-adv-x="315" 
d="M58 0v700h199v-700h-199zM229 731c-55 0 -94 30 -124 30c-18 0 -28 -11 -28 -31h-116c0 94 49 159 127 159c55 0 94 -30 124 -30c18 0 28 11 28 31h116c0 -94 -49 -159 -127 -159z" />
    <glyph glyph-name="Imacron" unicode="&#x12a;" horiz-adv-x="315" 
d="M58 0v700h199v-700h-199zM11 741v134h297v-134h-297z" />
    <glyph glyph-name="Kcommaaccent" unicode="&#x136;" horiz-adv-x="673" 
d="M58 0v700h199v-280l182 280h221l-233 -335l241 -365h-227l-184 286v-286h-199zM247 -118c0 52 43 93 96 93c59 0 101 -43 101 -110c0 -79 -49 -162 -118 -205l-62 69c21 14 45 36 54 63c-49 12 -71 52 -71 90z" />
    <glyph glyph-name="kgreenlandic" unicode="&#x138;" horiz-adv-x="593" 
d="M44 0v528h194v-205l124 205h217l-168 -243l182 -285h-228l-127 233v-233h-194z" />
    <glyph glyph-name="kcommaaccent" unicode="&#x137;" horiz-adv-x="591" 
d="M44 0v723h194v-400l124 205h217l-168 -243l182 -285h-228l-127 233v-233h-194zM198 -118c0 52 43 93 96 93c59 0 101 -43 101 -110c0 -79 -49 -162 -118 -205l-62 69c21 14 45 36 54 63c-49 12 -71 52 -71 90z" />
    <glyph glyph-name="Ibreve" unicode="&#x12c;" horiz-adv-x="315" 
d="M58 0v700h199v-700h-199zM161 737c-111 0 -176 64 -176 158h134c0 -23 9 -52 42 -52c34 0 43 29 43 52h134c0 -94 -65 -158 -177 -158z" />
    <glyph glyph-name="dotlessj" unicode="&#x237;" 
d="M44 18v510h194v-526c0 -144 -102 -194 -240 -194c-17 0 -36 3 -41 4v158s13 -1 25 -1c41 0 62 19 62 49z" />
    <glyph glyph-name="jcircumflex" unicode="&#x135;" 
d="M44 18v510h194v-526c0 -144 -102 -194 -240 -194c-17 0 -36 3 -41 4v158s13 -1 25 -1c41 0 62 19 62 49zM179 574l-37 61l-37 -61h-159l98 151h196l98 -151h-159z" />
    <glyph glyph-name="Jcircumflex" unicode="&#x134;" horiz-adv-x="409" 
d="M18 5l24 172c14 -2 34 -4 52 -4c42 0 57 28 57 53v474h199v-512c0 -149 -101 -194 -221 -194c-35 0 -80 3 -111 11zM280 729l-37 61l-37 -61h-159l98 151h196l98 -151h-159z" />
    <glyph glyph-name="ij" unicode="&#x133;" horiz-adv-x="564" 
d="M44 0v528h194v-528h-194zM38 655c0 56 46 97 103 97s104 -41 104 -97c0 -55 -47 -96 -104 -96s-103 41 -103 96zM326 18v510h194v-526c0 -144 -102 -194 -240 -194c-17 0 -36 3 -41 4v158s13 -1 25 -1c41 0 62 19 62 49zM320 655c0 56 46 97 103 97s104 -41 104 -97
c0 -55 -47 -96 -104 -96s-103 41 -103 96z" />
    <glyph glyph-name="IJ" unicode="&#x132;" horiz-adv-x="724" 
d="M58 0v700h199v-700h-199zM334 5l24 172c14 -2 34 -4 52 -4c42 0 57 28 57 53v474h199v-512c0 -149 -101 -194 -221 -194c-35 0 -80 3 -111 11z" />
    <glyph glyph-name="Idotaccent" unicode="&#x130;" horiz-adv-x="315" 
d="M58 0v700h199v-700h-199zM76 818c0 47 38 85 85 85s85 -38 85 -85s-38 -85 -85 -85s-85 38 -85 85z" />
    <glyph glyph-name="Rcommaaccent" unicode="&#x156;" horiz-adv-x="632" 
d="M58 0v700h247c174 0 257 -84 257 -221c0 -75 -32 -147 -92 -185l160 -294h-219l-118 247h-36v-247h-199zM257 409h33c45 0 69 27 69 63c0 39 -24 61 -69 61h-33v-124zM227 -118c0 52 43 93 96 93c59 0 101 -43 101 -110c0 -79 -49 -162 -118 -205l-62 69
c21 14 45 36 54 63c-49 12 -71 52 -71 90z" />
    <glyph glyph-name="rcommaaccent" unicode="&#x157;" horiz-adv-x="390" 
d="M370 541v-189c-7 2 -18 4 -31 4c-65 0 -101 -41 -101 -110v-246h-194v528h189v-67c26 50 80 80 137 80zM55 -118c0 52 43 93 96 93c59 0 101 -43 101 -110c0 -79 -49 -162 -118 -205l-62 69c21 14 45 36 54 63c-49 12 -71 52 -71 90z" />
    <glyph glyph-name="scircumflex" unicode="&#x15d;" horiz-adv-x="460" 
d="M10 71l106 106c31 -21 70 -37 113 -37c26 0 36 9 36 19c0 44 -238 25 -238 211c0 104 94 171 216 171c98 0 162 -44 199 -87l-125 -99c-19 17 -44 34 -78 34c-21 0 -30 -9 -30 -18c0 -52 241 -31 241 -206c0 -117 -91 -178 -220 -178c-99 0 -186 44 -220 84zM283 574
l-37 61l-37 -61h-159l98 151h196l98 -151h-159z" />
    <glyph glyph-name="Scircumflex" unicode="&#x15c;" horiz-adv-x="546" 
d="M12 157l166 82c20 -37 60 -69 96 -69c31 0 44 13 44 31c0 71 -285 73 -285 296c0 133 97 216 242 216c161 0 220 -115 239 -170l-165 -74c-14 29 -31 64 -79 64c-24 0 -38 -13 -38 -32c0 -78 287 -74 287 -285c0 -134 -89 -229 -251 -229c-165 0 -238 121 -256 170z
M316 729l-37 61l-37 -61h-159l98 151h196l98 -151h-159z" />
    <glyph glyph-name="sacute" unicode="&#x15b;" horiz-adv-x="460" 
d="M10 71l106 106c31 -21 70 -37 113 -37c26 0 36 9 36 19c0 44 -238 25 -238 211c0 104 94 171 216 171c98 0 162 -44 199 -87l-125 -99c-19 17 -44 34 -78 34c-21 0 -30 -9 -30 -18c0 -52 241 -31 241 -206c0 -117 -91 -178 -220 -178c-99 0 -186 44 -220 84zM149 574
l65 151h200l-110 -151h-155z" />
    <glyph glyph-name="Sacute" unicode="&#x15a;" horiz-adv-x="546" 
d="M12 157l166 82c20 -37 60 -69 96 -69c31 0 44 13 44 31c0 71 -285 73 -285 296c0 133 97 216 242 216c161 0 220 -115 239 -170l-165 -74c-14 29 -31 64 -79 64c-24 0 -38 -13 -38 -32c0 -78 287 -74 287 -285c0 -134 -89 -229 -251 -229c-165 0 -238 121 -256 170z
M188 727l65 151h200l-110 -151h-155z" />
    <glyph glyph-name="rcaron" unicode="&#x159;" horiz-adv-x="390" 
d="M370 541v-189c-7 2 -18 4 -31 4c-65 0 -101 -41 -101 -110v-246h-194v528h189v-67c26 50 80 80 137 80zM198 664l37 61h159l-98 -151h-196l-98 151h159z" />
    <glyph glyph-name="Rcaron" unicode="&#x158;" horiz-adv-x="632" 
d="M58 0v700h247c174 0 257 -84 257 -221c0 -75 -32 -147 -92 -185l160 -294h-219l-118 247h-36v-247h-199zM257 409h33c45 0 69 27 69 63c0 39 -24 61 -69 61h-33v-124zM286 819l37 61h159l-98 -151h-196l-98 151h159z" />
    <glyph glyph-name="racute" unicode="&#x155;" horiz-adv-x="390" 
d="M370 541v-189c-7 2 -18 4 -31 4c-65 0 -101 -41 -101 -110v-246h-194v528h189v-67c26 50 80 80 137 80zM103 574l65 151h200l-110 -151h-155z" />
    <glyph glyph-name="Racute" unicode="&#x154;" horiz-adv-x="632" 
d="M58 0v700h247c174 0 257 -84 257 -221c0 -75 -32 -147 -92 -185l160 -294h-219l-118 247h-36v-247h-199zM257 409h33c45 0 69 27 69 63c0 39 -24 61 -69 61h-33v-124zM188 727l65 151h200l-110 -151h-155z" />
    <glyph glyph-name="ohungarumlaut" unicode="&#x151;" horiz-adv-x="624" 
d="M606 264c0 -160 -127 -277 -294 -277s-294 117 -294 277s127 277 294 277s294 -117 294 -277zM212 264c0 -67 42 -110 100 -110s100 43 100 110s-42 111 -100 111s-100 -44 -100 -111zM118 574l65 151h190l-110 -151h-145zM337 574l65 151h190l-110 -151h-145z" />
    <glyph glyph-name="Ohungarumlaut" unicode="&#x150;" horiz-adv-x="802" 
d="M401 -13c-231 0 -378 159 -378 364c0 202 147 362 378 362s378 -160 378 -362c0 -205 -147 -364 -378 -364zM401 531c-102 0 -170 -78 -170 -180c0 -105 68 -182 170 -182s170 77 170 182c0 102 -68 180 -170 180zM198 727l65 151h190l-110 -151h-145zM417 727l65 151
h190l-110 -151h-145z" />
    <glyph glyph-name="Obreve" unicode="&#x14e;" horiz-adv-x="802" 
d="M401 -13c-231 0 -378 159 -378 364c0 202 147 362 378 362s378 -160 378 -362c0 -205 -147 -364 -378 -364zM401 531c-102 0 -170 -78 -170 -180c0 -105 68 -182 170 -182s170 77 170 182c0 102 -68 180 -170 180zM402 737c-111 0 -176 64 -176 158h134
c0 -23 9 -52 42 -52c34 0 43 29 43 52h134c0 -94 -65 -158 -177 -158z" />
    <glyph glyph-name="omacron" unicode="&#x14d;" horiz-adv-x="624" 
d="M606 264c0 -160 -127 -277 -294 -277s-294 117 -294 277s127 277 294 277s294 -117 294 -277zM212 264c0 -67 42 -110 100 -110s100 43 100 110s-42 111 -100 111s-100 -44 -100 -111zM167 581v134h297v-134h-297z" />
    <glyph glyph-name="Lacute" unicode="&#x139;" horiz-adv-x="469" 
d="M58 0v700h199v-526h201v-174h-400zM76 727l65 151h200l-110 -151h-155z" />
    <glyph glyph-name="lacute" unicode="&#x13a;" 
d="M44 0v723h194v-723h-194zM61 745l65 151h200l-110 -151h-155z" />
    <glyph glyph-name="lcommaaccent" unicode="&#x13c;" 
d="M44 0v723h194v-723h-194zM44 -118c0 52 43 93 96 93c59 0 101 -43 101 -110c0 -79 -49 -162 -118 -205l-62 69c21 14 45 36 54 63c-49 12 -71 52 -71 90z" />
    <glyph glyph-name="Lcommaaccent" unicode="&#x13b;" horiz-adv-x="469" 
d="M58 0v700h199v-526h201v-174h-400zM154 -118c0 52 43 93 96 93c59 0 101 -43 101 -110c0 -79 -49 -162 -118 -205l-62 69c21 14 45 36 54 63c-49 12 -71 52 -71 90z" />
    <glyph glyph-name="Lcaron" unicode="&#x13d;" horiz-adv-x="469" 
d="M318 526l7 174h139l-50 -174h-96zM58 0v700h199v-526h201v-174h-400z" />
    <glyph glyph-name="lcaron" unicode="&#x13e;" 
d="M279 549l7 174h139l-50 -174h-96zM44 0v723h194v-723h-194z" />
    <glyph glyph-name="ldot" unicode="&#x140;" horiz-adv-x="504" 
d="M44 0v723h194v-723h-194zM288 379c0 62 48 112 113 112s113 -50 113 -112c0 -60 -48 -110 -113 -110s-113 50 -113 110z" />
    <glyph glyph-name="Ldot" unicode="&#x13f;" horiz-adv-x="497" 
d="M58 0v700h199v-526h201v-174h-400zM293 368c0 62 48 112 113 112s113 -50 113 -112c0 -60 -48 -110 -113 -110s-113 50 -113 110z" />
    <glyph glyph-name="Lslash" unicode="&#x141;" horiz-adv-x="481" 
d="M15 151v177l55 29v343h199v-237l95 50v-183l-95 -47v-109h201v-174h-400v179z" />
    <glyph glyph-name="lslash" unicode="&#x142;" horiz-adv-x="325" 
d="M18 190v179l50 26v328h194v-219l55 30v-182l-55 -30v-322h-194v216z" />
    <glyph glyph-name="Omacron" unicode="&#x14c;" horiz-adv-x="802" 
d="M401 -13c-231 0 -378 159 -378 364c0 202 147 362 378 362s378 -160 378 -362c0 -205 -147 -364 -378 -364zM401 531c-102 0 -170 -78 -170 -180c0 -105 68 -182 170 -182s170 77 170 182c0 102 -68 180 -170 180zM252 741v134h297v-134h-297z" />
    <glyph glyph-name="Nacute" unicode="&#x143;" horiz-adv-x="740" 
d="M58 0v700h203l225 -397v397h196v-700h-198l-231 391v-391h-195zM284 727l65 151h200l-110 -151h-155z" />
    <glyph glyph-name="nacute" unicode="&#x144;" horiz-adv-x="583" 
d="M365 541c125 0 179 -79 179 -201v-340h-194v311c0 40 -24 59 -56 59c-38 0 -56 -26 -56 -56v-314h-194v528h189v-50c19 27 67 63 132 63zM207 574l65 151h200l-110 -151h-155z" />
    <glyph glyph-name="Ncommaaccent" unicode="&#x145;" horiz-adv-x="736" 
d="M58 0v700h203l225 -397v397h196v-700h-198l-231 391v-391h-195zM276 -118c0 52 43 93 96 93c59 0 101 -43 101 -110c0 -79 -49 -162 -118 -205l-62 69c21 14 45 36 54 63c-49 12 -71 52 -71 90z" />
    <glyph glyph-name="ncommaaccent" unicode="&#x146;" horiz-adv-x="583" 
d="M365 541c125 0 179 -79 179 -201v-340h-194v311c0 40 -24 59 -56 59c-38 0 -56 -26 -56 -56v-314h-194v528h189v-50c19 27 67 63 132 63zM199 -118c0 52 43 93 96 93c59 0 101 -43 101 -110c0 -79 -49 -162 -118 -205l-62 69c21 14 45 36 54 63c-49 12 -71 52 -71 90z
" />
    <glyph glyph-name="Ncaron" unicode="&#x147;" horiz-adv-x="740" 
d="M58 0v700h203l225 -397v397h196v-700h-198l-231 391v-391h-195zM379 819l37 61h159l-98 -151h-196l-98 151h159z" />
    <glyph glyph-name="ncaron" unicode="&#x148;" horiz-adv-x="583" 
d="M365 541c125 0 179 -79 179 -201v-340h-194v311c0 40 -24 59 -56 59c-38 0 -56 -26 -56 -56v-314h-194v528h189v-50c19 27 67 63 132 63zM288 664l37 61h159l-98 -151h-196l-98 151h159z" />
    <glyph glyph-name="napostrophe" unicode="&#x149;" horiz-adv-x="700" 
d="M481 541c125 0 179 -79 179 -201v-340h-194v311c0 40 -24 59 -56 59c-38 0 -56 -26 -56 -56v-314h-194v528h189v-50c19 27 67 63 132 63zM-47 646c0 52 43 93 96 93c59 0 101 -43 101 -110c0 -79 -49 -162 -118 -205l-62 69c21 14 45 36 54 63c-49 12 -71 52 -71 90z" />
    <glyph glyph-name="eng" unicode="&#x14b;" horiz-adv-x="583" 
d="M350 18v293c0 40 -24 59 -56 59c-38 0 -56 -26 -56 -56v-314h-194v528h189v-50c19 27 67 63 132 63c125 0 179 -79 179 -201v-340c0 -140 -103 -192 -240 -192c-17 0 -36 3 -41 4v158s13 -1 25 -1c41 0 62 19 62 49z" />
    <glyph glyph-name="Eng" unicode="&#x14a;" horiz-adv-x="736" 
d="M356 -192l24 167c13 -2 39 -5 58 -5c32 0 48 9 48 34l-233 387v-391h-195v700h203l225 -397v397h196v-709c0 -149 -98 -194 -218 -194c-35 0 -77 3 -108 11z" />
    <glyph glyph-name="gcommaaccent" unicode="&#x123;" horiz-adv-x="635" 
d="M92 -149l55 146c14 -6 80 -33 145 -33c58 0 113 13 113 56v11c-29 -24 -65 -40 -122 -40c-154 0 -262 113 -262 275c0 163 96 275 249 275c68 0 115 -30 134 -46v33h194v-461c0 -198 -146 -259 -300 -259c-78 0 -158 20 -206 43zM410 266c0 68 -39 109 -97 109
c-62 0 -98 -46 -98 -109c0 -65 37 -108 98 -108c64 0 97 50 97 108zM406 658c0 -52 -43 -93 -96 -93c-59 0 -101 43 -101 110c0 79 49 162 118 205l62 -69c-21 -14 -45 -36 -54 -63c49 -12 71 -52 71 -90z" />
    <glyph glyph-name="ccedilla" unicode="&#xe7;" horiz-adv-x="486" 
d="M464 499l-51 -160c-32 24 -64 32 -93 32c-72 0 -109 -50 -109 -108c0 -68 49 -109 116 -109c28 0 64 10 88 28l50 -155c-40 -26 -94 -39 -150 -40l-3 -19c45 -12 78 -46 78 -97c0 -75 -62 -111 -140 -111c-27 0 -60 8 -74 14l24 87c8 -2 21 -5 35 -5c20 0 33 11 33 23
c0 18 -26 24 -42 24c-11 0 -19 -2 -19 -2l16 96c-126 31 -205 132 -205 266c0 163 127 278 294 278c62 0 118 -18 152 -42z" />
    <glyph glyph-name="iacute" unicode="&#xed;" 
d="M44 0v528h194v-528h-194zM38 574l65 151h200l-110 -151h-155z" />
    <glyph glyph-name="igrave" unicode="&#xec;" 
d="M44 0v528h194v-528h-194zM174 725l65 -151h-155l-110 151h200z" />
    <glyph glyph-name="icircumflex" unicode="&#xee;" 
d="M44 0v528h194v-528h-194zM180 574l-37 61l-37 -61h-159l98 151h196l98 -151h-159z" />
    <glyph glyph-name="idieresis" unicode="&#xef;" 
d="M44 0v528h194v-528h-194zM171 653c0 46 33 84 85 84c50 0 86 -38 86 -84s-36 -84 -86 -84c-52 0 -85 38 -85 84zM-55 653c0 46 35 84 86 84s87 -38 87 -84s-36 -84 -87 -84s-86 38 -86 84z" />
    <glyph glyph-name="Ccedilla" unicode="&#xc7;" horiz-adv-x="635" 
d="M23 351c0 201 148 362 375 362c84 0 161 -25 212 -60l-55 -174c-33 27 -81 52 -147 52c-106 0 -177 -78 -177 -180c0 -104 71 -182 177 -182c66 0 114 25 147 52l55 -174c-51 -35 -128 -60 -212 -60h-6l-3 -19c45 -12 78 -46 78 -97c0 -75 -62 -111 -140 -111
c-27 0 -60 8 -74 14l24 87c8 -2 21 -5 35 -5c20 0 33 11 33 23c0 18 -26 24 -42 24c-11 0 -19 -2 -19 -2l16 97c-171 39 -277 181 -277 353z" />
    <glyph glyph-name="oe" unicode="&#x153;" horiz-adv-x="959" 
d="M312 541c73 0 139 -23 190 -62c44 39 103 62 175 62c174 0 266 -108 266 -293c0 -11 -1 -25 -2 -35h-330c10 -41 44 -64 92 -64c49 0 85 32 95 47l132 -92c-12 -26 -86 -117 -230 -117c-80 0 -145 25 -193 66c-51 -42 -119 -66 -195 -66c-167 0 -294 117 -294 277
s127 277 294 277zM212 264c0 -67 42 -110 100 -110s100 43 100 110s-42 111 -100 111s-100 -44 -100 -111zM616 331h130c-2 24 -22 57 -65 57c-46 0 -63 -37 -65 -57z" />
    <glyph glyph-name="Aogonek" unicode="&#x104;" horiz-adv-x="702" 
d="M497 -115c0 62 52 100 86 115h-85l-42 134h-210l-42 -134h-200l242 700h210l242 -700c-16 -4 -43 -23 -43 -50s23 -34 43 -34v-127c-16 -4 -43 -8 -70 -8c-62 0 -131 25 -131 104zM409 293l-58 201l-58 -201h116z" />
    <glyph glyph-name="aogonek" unicode="&#x105;" horiz-adv-x="551" 
d="M312 -115c0 62 55 100 89 115h-62l-11 29c-29 -30 -74 -42 -125 -42c-95 0 -187 59 -187 177c0 106 81 176 209 176c36 0 73 -9 94 -20v16c0 21 -20 42 -69 42c-42 0 -86 -11 -129 -30l-72 126c57 39 145 67 224 67c191 0 240 -104 240 -227v-314c-13 -4 -43 -23 -43 -50
s23 -34 43 -34v-127c-16 -4 -43 -8 -70 -8c-62 0 -131 25 -131 104zM210 171c0 -28 28 -40 56 -40s56 12 56 40c0 27 -26 42 -57 42c-29 0 -55 -15 -55 -42z" />
    <glyph glyph-name="dcroat" unicode="&#x111;" horiz-adv-x="656" 
d="M596 564v-564h-180v34c-20 -20 -66 -47 -135 -47c-154 0 -262 115 -262 277c0 163 96 277 249 277c68 0 115 -30 134 -46v69h-125v115h125v44h194v-44h44v-115h-44zM408 264c0 70 -39 111 -97 111c-62 0 -98 -46 -98 -111c0 -67 37 -110 98 -110c64 0 97 50 97 110z" />
    <glyph glyph-name="uogonek" unicode="&#x173;" horiz-adv-x="579" 
d="M339 -115c0 62 52 100 86 115h-74v50c-19 -27 -67 -63 -132 -63c-125 0 -179 79 -179 201v340h194v-311c0 -40 24 -59 56 -59c38 0 56 26 56 56v314h194v-528c-16 -4 -43 -23 -43 -50s23 -34 43 -34v-127c-16 -4 -43 -8 -70 -8c-62 0 -131 25 -131 104z" />
    <glyph glyph-name="Uogonek" unicode="&#x172;" horiz-adv-x="726" 
d="M270 -115c0 50 33 84 63 103c-178 11 -275 125 -275 286v426h199v-427c0 -65 41 -106 106 -106s106 41 106 106v427h199v-426c0 -136 -70 -239 -200 -274c-13 -4 -40 -23 -40 -50s23 -34 43 -34v-127c-16 -4 -43 -8 -70 -8c-62 0 -131 25 -131 104z" />
    <glyph glyph-name="Eogonek" unicode="&#x118;" horiz-adv-x="498" 
d="M58 0v700h392v-174h-193v-86h163v-173h-163v-93h201v-174c-13 -4 -40 -23 -40 -50s23 -34 43 -34v-127c-16 -4 -43 -8 -70 -8c-62 0 -131 25 -131 104c0 62 52 100 86 115h-288z" />
    <glyph glyph-name="tbar" unicode="&#x167;" horiz-adv-x="379" 
d="M69 528v111h190v-111h85v-153h-85v-48h72v-120h-72v-5c0 -37 39 -42 69 -42c7 0 19 1 19 1v-163s-22 -6 -70 -6c-136 0 -212 66 -212 208v7h-50v120h50v48h-50v153h54z" />
    <glyph glyph-name="scedilla" unicode="&#x15f;" horiz-adv-x="460" 
d="M10 71l106 106c31 -21 70 -37 113 -37c26 0 36 9 36 19c0 44 -238 25 -238 211c0 104 94 171 216 171c98 0 162 -44 199 -87l-125 -99c-19 17 -44 34 -78 34c-21 0 -30 -9 -30 -18c0 -52 241 -31 241 -206c0 -104 -71 -163 -177 -175l-3 -22c45 -12 78 -46 78 -97
c0 -75 -62 -111 -140 -111c-27 0 -60 8 -74 14l24 87c8 -2 21 -5 35 -5c20 0 33 11 33 23c0 18 -26 24 -42 24c-11 0 -19 -2 -19 -2l15 90c-78 11 -142 47 -170 80z" />
    <glyph glyph-name="Scedilla" unicode="&#x15e;" horiz-adv-x="546" 
d="M12 157l166 82c20 -37 60 -69 96 -69c31 0 44 13 44 31c0 71 -285 73 -285 296c0 133 97 216 242 216c161 0 220 -115 239 -170l-165 -74c-14 29 -31 64 -79 64c-24 0 -38 -13 -38 -32c0 -78 287 -74 287 -285c0 -121 -73 -211 -207 -226l-3 -22c45 -12 78 -46 78 -97
c0 -75 -62 -111 -140 -111c-27 0 -60 8 -74 14l24 87c8 -2 21 -5 35 -5c20 0 33 11 33 23c0 18 -26 24 -42 24c-11 0 -19 -2 -19 -2l15 90c-131 21 -191 122 -207 166z" />
    <glyph glyph-name="Iogonek" unicode="&#x12e;" horiz-adv-x="315" 
d="M58 0v700h199v-700c-13 -4 -40 -23 -40 -50s23 -34 43 -34v-127c-16 -4 -43 -8 -70 -8c-62 0 -131 25 -131 104c0 62 52 100 86 115h-87z" />
    <glyph glyph-name="iogonek" unicode="&#x12f;" 
d="M44 0v528h194v-528c-12 -4 -39 -23 -39 -50s23 -34 43 -34v-127c-16 -4 -43 -8 -70 -8c-62 0 -131 25 -131 104c0 62 52 100 86 115h-83zM31 652c0 59 48 107 108 107s109 -48 109 -107c0 -58 -49 -106 -109 -106s-108 48 -108 106z" />
    <glyph glyph-name="ibreve" unicode="&#x12d;" 
d="M44 0v528h194v-528h-194zM143 576c-111 0 -176 64 -176 158h134c0 -23 9 -52 42 -52c34 0 43 29 43 52h134c0 -94 -65 -158 -177 -158z" />
    <glyph glyph-name="itilde" unicode="&#x129;" 
d="M44 0v528h194v-528h-194zM212 574c-55 0 -94 30 -124 30c-18 0 -28 -11 -28 -31h-116c0 94 49 159 127 159c55 0 94 -30 124 -30c18 0 28 11 28 31h116c0 -94 -49 -159 -127 -159z" />
    <glyph glyph-name="imacron" unicode="&#x12b;" 
d="M44 0v528h194v-528h-194zM-7 581v134h297v-134h-297z" />
    <glyph glyph-name="hbar" unicode="&#x127;" horiz-adv-x="593" 
d="M370 541c138 0 184 -121 184 -243v-298h-194v311c0 40 -25 59 -57 59c-38 0 -57 -26 -57 -56v-314h-194v564h-42v115h42v44h194v-44h134v-115h-134v-80c21 26 64 57 124 57z" />
    <glyph glyph-name="OE" unicode="&#x152;" horiz-adv-x="1019" 
d="M401 -13c-231 0 -378 159 -378 364c0 202 147 362 378 362c38 0 75 -5 108 -13h462v-174h-234c14 -27 25 -56 32 -86h172v-173h-171c-7 -33 -18 -65 -33 -93h242v-174h-470c-33 -8 -70 -13 -108 -13zM401 531c-102 0 -170 -78 -170 -180c0 -105 68 -182 170 -182
s170 77 170 182c0 102 -68 180 -170 180z" />
    <glyph glyph-name="obreve" unicode="&#x14f;" horiz-adv-x="624" 
d="M606 264c0 -160 -127 -277 -294 -277s-294 117 -294 277s127 277 294 277s294 -117 294 -277zM212 264c0 -67 42 -110 100 -110s100 43 100 110s-42 111 -100 111s-100 -44 -100 -111zM311 576c-111 0 -176 64 -176 158h134c0 -23 9 -52 42 -52c34 0 43 29 43 52h134
c0 -94 -65 -158 -177 -158z" />
    <glyph glyph-name="hyphen.caps" horiz-adv-x="405" 
d="M49 262v170h306v-170h-306z" />
    <glyph glyph-name="endash.caps" horiz-adv-x="705" 
d="M49 268v155h607v-155h-607z" />
    <glyph glyph-name="emdash.caps" horiz-adv-x="985" 
d="M50 268v155h885v-155h-885z" />
    <glyph glyph-name="guillemotleft.caps" horiz-adv-x="557" 
d="M242 357l124 192h167l-123 -192l123 -192h-167zM146 165l-123 192l123 192h168l-123 -192l123 -192h-168z" />
    <glyph glyph-name="guillemotright.caps" horiz-adv-x="557" 
d="M190 549l124 -192l-124 -192h-167l123 192l-123 192h167zM533 357l-123 -192h-168l123 192l-123 192h168z" />
    <glyph glyph-name="guilsinglleft.caps" horiz-adv-x="338" 
d="M146 165l-123 192l123 192h168l-123 -192l123 -192h-168z" />
    <glyph glyph-name="guilsinglright.caps" horiz-adv-x="338" 
d="M190 549l124 -192l-124 -192h-167l123 192l-123 192h167z" />
    <glyph glyph-name="parenleft.caps" horiz-adv-x="368" 
d="M27 79v537c0 164 117 247 283 247v-164c-67 0 -92 -32 -92 -83v-537c0 -51 25 -83 92 -83v-164c-166 0 -283 83 -283 247z" />
    <glyph glyph-name="parenright.caps" horiz-adv-x="369" 
d="M341 616v-537c0 -164 -117 -247 -283 -247v164c67 0 92 32 92 83v537c0 51 -25 83 -92 83v164c166 0 283 -83 283 -247z" />
    <glyph glyph-name="bracketleft.caps" horiz-adv-x="368" 
d="M27 -168v1031h283v-164h-92v-703h92v-164h-283z" />
    <glyph glyph-name="bracketright.caps" horiz-adv-x="367" 
d="M341 863v-1031h-283v164h92v703h-92v164h283z" />
    <glyph glyph-name="braceleft.caps" horiz-adv-x="438" 
d="M22 256v182c41 0 75 11 75 93v85c0 164 117 247 283 247v-164c-67 0 -92 -32 -92 -83v-131c0 -90 -70 -130 -107 -138c37 -8 107 -48 107 -138v-130c0 -51 25 -83 92 -83v-164c-166 0 -283 83 -283 247v84c0 82 -34 93 -75 93z" />
    <glyph glyph-name="bar.caps" horiz-adv-x="315" 
d="M66 -213v1123h183v-1123h-183z" />
    <glyph glyph-name="braceright.caps" horiz-adv-x="438" 
d="M416 438v-182c-41 0 -75 -11 -75 -93v-84c0 -164 -117 -247 -283 -247v164c67 0 92 32 92 83v130c0 90 70 130 107 138c-37 8 -107 48 -107 138v131c0 51 -25 83 -92 83v164c166 0 283 -83 283 -247v-85c0 -82 34 -93 75 -93z" />
    <glyph glyph-name="slash.caps" horiz-adv-x="487" 
d="M10 -81l300 858h167l-300 -858h-167z" />
    <glyph glyph-name="backslash.caps" horiz-adv-x="487" 
d="M177 777l300 -858h-167l-300 858h167z" />
    <glyph glyph-name="exclamdown.caps" horiz-adv-x="328" 
d="M51 603c0 60 48 110 113 110s113 -50 113 -110c0 -62 -48 -112 -113 -112s-113 50 -113 112zM61 0l15 473h176l15 -473h-206z" />
    <glyph glyph-name="questiondown.caps" horiz-adv-x="506" 
d="M367 473v-44c0 -135 -150 -164 -150 -229c0 -21 15 -45 53 -45c42 0 57 33 64 50l152 -67c-20 -58 -77 -151 -230 -151c-135 0 -236 79 -236 200c0 137 160 169 160 255v31h187zM388 603c0 -62 -48 -112 -113 -112s-113 50 -113 112c0 60 48 110 113 110
s113 -50 113 -110z" />
    <glyph glyph-name="periodcentered.caps" horiz-adv-x="278" 
d="M26 348c0 62 48 112 113 112s113 -50 113 -112c0 -60 -48 -110 -113 -110s-113 50 -113 110z" />
    <glyph glyph-name="bullet.caps" horiz-adv-x="406" 
d="M203 182c-99 0 -172 77 -172 172s73 172 172 172s172 -77 172 -172s-73 -172 -172 -172z" />
    <glyph glyph-name="zero.tab" horiz-adv-x="608" 
d="M564 350c0 -247 -81 -363 -260 -363c-180 0 -260 116 -260 363c0 246 80 363 260 363c179 0 260 -117 260 -363zM245 350c0 -135 15 -181 59 -181c45 0 59 46 59 181s-14 181 -59 181c-44 0 -59 -46 -59 -181z" />
    <glyph glyph-name="one.tab" horiz-adv-x="608" 
d="M555 0h-487v169h162v341l-133 -37l-45 162l212 65h163v-531h128v-169z" />
    <glyph glyph-name="two.tab" horiz-adv-x="608" 
d="M56 0v64c0 210 295 320 295 420c0 30 -22 50 -58 50c-37 0 -61 -25 -72 -58l-172 50c20 78 90 187 253 187c140 0 251 -78 251 -221c0 -160 -219 -239 -259 -325h265v-167h-503z" />
    <glyph glyph-name="three.tab" horiz-adv-x="608" 
d="M524 700v-167l-114 -96c78 -18 147 -75 147 -205c0 -147 -108 -245 -257 -245c-167 0 -232 112 -250 190l172 49c11 -34 37 -60 72 -60c39 0 62 26 62 58c0 27 -20 56 -66 56h-106v147l111 104h-214v169h443z" />
    <glyph glyph-name="four.tab" horiz-adv-x="608" 
d="M25 150v137l253 413h238v-386h67v-164h-67v-150h-194v150h-297zM226 314h96v182z" />
    <glyph glyph-name="five.tab" horiz-adv-x="608" 
d="M292 166c37 0 71 26 71 70c0 36 -23 70 -73 70c-34 0 -53 -17 -65 -34l-160 30l14 398h438v-169h-261l-4 -78c32 13 59 16 84 16c123 0 228 -95 228 -233c0 -142 -113 -249 -261 -249c-168 0 -241 112 -259 190l172 49c9 -40 40 -60 76 -60z" />
    <glyph glyph-name="six.tab" horiz-adv-x="608" 
d="M311 169c43 0 59 28 59 64c0 43 -22 72 -63 72c-19 0 -41 -6 -62 -18c0 -61 1 -118 66 -118zM359 713c90 0 147 -27 174 -42l-74 -160c-16 8 -44 19 -86 19c-79 0 -108 -44 -117 -83c15 8 49 23 99 23c114 0 210 -65 210 -229c0 -146 -104 -254 -254 -254
c-209 0 -268 128 -268 328c0 187 63 398 316 398z" />
    <glyph glyph-name="seven.tab" horiz-adv-x="608" 
d="M48 700h511v-136l-227 -564h-215l221 531h-290v169z" />
    <glyph glyph-name="eight.tab" horiz-adv-x="608" 
d="M304 -13c-165 0 -265 86 -265 228c0 69 32 126 77 155c-33 26 -61 73 -61 134c0 117 91 209 249 209s249 -92 249 -209c0 -61 -28 -108 -61 -134c45 -29 77 -86 77 -155c0 -142 -100 -228 -265 -228zM304 539c-36 0 -53 -20 -53 -48c0 -34 19 -49 53 -49s53 15 53 49
c0 28 -17 48 -53 48zM304 164c39 0 62 20 62 55c0 27 -18 56 -62 56s-62 -29 -62 -56c0 -35 23 -55 62 -55z" />
    <glyph glyph-name="nine.tab" horiz-adv-x="608" 
d="M297 531c-43 0 -59 -28 -59 -64c0 -43 22 -72 63 -72c19 0 41 6 62 18c0 61 -1 118 -66 118zM249 -13c-90 0 -147 27 -174 42l74 160c16 -8 44 -19 86 -19c79 0 108 44 117 83c-15 -8 -48 -23 -99 -23c-114 0 -210 65 -210 229c0 146 104 254 254 254
c209 0 268 -128 268 -328c0 -187 -63 -398 -316 -398z" />
    <glyph glyph-name="numero" unicode="&#x2116;" horiz-adv-x="1132" 
d="M58 0v700h203l225 -397v397h196v-700h-198l-231 391v-391h-195zM734 167v146h342v-146h-342zM721 531c0 100 77 182 184 182c108 0 185 -82 185 -182s-76 -179 -185 -179c-108 0 -184 79 -184 179zM860 532c0 -24 16 -46 45 -46c31 0 46 22 46 46s-15 47 -46 47
c-30 0 -45 -23 -45 -47z" />
    <glyph glyph-name="eogonek" unicode="&#x119;" horiz-adv-x="566" 
d="M19 271c0 150 103 270 265 270c174 0 266 -108 266 -293c0 -11 -1 -25 -2 -35h-330c10 -41 44 -64 92 -64c49 0 85 32 95 47l132 -92c-8 -16 -39 -58 -96 -87c-22 -14 -46 -36 -46 -64c0 -27 23 -37 43 -37v-127c-16 -4 -43 -8 -70 -8c-62 0 -131 25 -131 104
c0 49 32 83 62 102c-176 4 -280 132 -280 284zM223 331h130c-2 24 -22 57 -65 57c-46 0 -63 -37 -65 -57z" />
    <glyph glyph-name="Aringacute" unicode="&#x1fa;" horiz-adv-x="702" 
d="M227 743c0 66 55 111 124 111c71 0 125 -45 125 -110c0 -21 -6 -41 -16 -57l238 -687h-200l-42 134h-210l-42 -134h-200l238 688c-10 16 -15 34 -15 55zM263 878l65 151h200l-110 -151h-155zM409 293l-58 201l-58 -201h116zM317 744c0 -22 14 -37 35 -37s35 15 35 37
c0 21 -14 36 -35 36s-35 -15 -35 -36z" />
    <glyph glyph-name="aringacute" unicode="&#x1fb;" horiz-adv-x="551" 
d="M16 164c0 106 81 176 209 176c36 0 73 -9 94 -20v16c0 21 -20 42 -69 42c-42 0 -86 -11 -129 -30l-72 126c57 39 145 67 224 67c191 0 240 -104 240 -227v-314h-174l-11 29c-29 -30 -74 -42 -125 -42c-95 0 -187 59 -187 177zM210 171c0 -28 28 -40 56 -40s56 12 56 40
c0 27 -26 42 -57 42c-29 0 -55 -15 -55 -42zM159 666c0 66 55 111 124 111c71 0 125 -45 125 -110c0 -66 -54 -111 -125 -111c-69 0 -124 45 -124 110zM249 667c0 -22 14 -37 35 -37s35 15 35 37c0 21 -14 36 -35 36s-35 -15 -35 -36zM188 796l65 151h200l-110 -151h-155z
" />
    <glyph glyph-name="AEacute" unicode="&#x1fc;" horiz-adv-x="918" 
d="M8 0l381 700h481v-174h-193v-86h163v-173h-163v-93h200v-174h-399v134h-184l-70 -134h-216zM478 519l-113 -226h113v226zM481 727l65 151h200l-110 -151h-155z" />
    <glyph glyph-name="aeacute" unicode="&#x1fd;" horiz-adv-x="861" 
d="M435 496c35 24 85 45 144 45c174 0 266 -108 266 -293c0 -11 -1 -25 -2 -35h-330c10 -41 44 -64 92 -64c49 0 85 32 95 47l132 -92c-12 -26 -86 -117 -230 -117c-82 0 -149 27 -198 71c-40 -42 -94 -71 -190 -71c-105 0 -198 63 -198 177c0 106 81 176 209 176
c36 0 73 -9 94 -20v16c0 21 -20 42 -69 42c-42 0 -86 -11 -129 -30l-72 126c57 39 145 67 224 67c73 0 124 -17 162 -45zM210 171c0 -28 28 -40 56 -40s56 12 56 40c0 27 -26 42 -57 42c-29 0 -55 -15 -55 -42zM518 331h130c-2 24 -22 57 -65 57c-46 0 -63 -37 -65 -57z
M331 574l65 151h200l-110 -151h-155z" />
    <glyph glyph-name="Oslashacute" unicode="&#x1fe;" horiz-adv-x="790" 
d="M401 -13c-69 0 -130 14 -183 39l-44 -54l-100 78l42 51c-60 65 -93 152 -93 250c0 202 147 362 378 362c69 0 130 -14 182 -40l46 56l100 -78l-43 -53c60 -64 93 -151 93 -247c0 -205 -147 -364 -378 -364zM401 169c102 0 170 77 170 182c0 31 -7 60 -18 85l-211 -258
c18 -6 38 -9 59 -9zM401 531c-102 0 -170 -78 -170 -180c0 -32 6 -62 18 -87l210 257c-18 6 -37 10 -58 10zM309 727l65 151h200l-110 -151h-155z" />
    <glyph glyph-name="oslashacute" unicode="&#x1ff;" horiz-adv-x="629" 
d="M608 264c0 -160 -127 -277 -294 -277c-47 0 -91 10 -130 26l-42 -52l-85 65l38 48c-47 48 -75 114 -75 190c0 160 127 277 294 277c49 0 95 -11 135 -29l39 48l85 -65l-37 -46c45 -48 72 -112 72 -185zM214 264c0 -14 2 -26 5 -38l118 146c-8 2 -15 3 -23 3
c-58 0 -100 -44 -100 -111zM414 264c0 11 -1 21 -3 30l-113 -139c5 -1 10 -1 16 -1c58 0 100 43 100 110zM218 574l65 151h200l-110 -151h-155z" />
    <glyph glyph-name="Wgrave" unicode="&#x1e80;" horiz-adv-x="1026" 
d="M614 0l-100 402l-100 -402h-226l-181 700h213l93 -465l112 465h178l112 -465l93 465h213l-182 -700h-225zM529 878l65 -151h-155l-110 151h200z" />
    <glyph glyph-name="wgrave" unicode="&#x1e81;" horiz-adv-x="855" 
d="M487 0l-60 266l-59 -266h-219l-142 528h212l54 -322s1 4 65 322h180c63 -318 64 -322 64 -322l54 322h213l-143 -528h-219zM447 725l65 -151h-155l-110 151h200z" />
    <glyph glyph-name="Wacute" unicode="&#x1e82;" horiz-adv-x="1024" 
d="M614 0l-100 402l-100 -402h-226l-181 700h213l93 -465l112 465h178l112 -465l93 465h213l-182 -700h-225zM426 727l65 151h200l-110 -151h-155z" />
    <glyph glyph-name="wacute" unicode="&#x1e83;" horiz-adv-x="855" 
d="M487 0l-60 266l-59 -266h-219l-142 528h212l54 -322s1 4 65 322h180c63 -318 64 -322 64 -322l54 322h213l-143 -528h-219zM335 574l65 151h200l-110 -151h-155z" />
    <glyph glyph-name="Wdieresis" unicode="&#x1e84;" horiz-adv-x="1027" 
d="M614 0l-100 402l-100 -402h-226l-181 700h213l93 -465l112 465h178l112 -465l93 465h213l-182 -700h-225zM541 812c0 46 33 84 85 84c50 0 86 -38 86 -84s-36 -84 -86 -84c-52 0 -85 38 -85 84zM315 812c0 46 35 84 86 84s87 -38 87 -84s-36 -84 -87 -84s-86 38 -86 84z
" />
    <glyph glyph-name="wdieresis" unicode="&#x1e85;" horiz-adv-x="855" 
d="M487 0l-60 266l-59 -266h-219l-142 528h212l54 -322s1 4 65 322h180c63 -318 64 -322 64 -322l54 322h213l-143 -528h-219zM455 653c0 46 33 84 85 84c50 0 86 -38 86 -84s-36 -84 -86 -84c-52 0 -85 38 -85 84zM229 653c0 46 35 84 86 84s87 -38 87 -84s-36 -84 -87 -84
s-86 38 -86 84z" />
    <glyph glyph-name="Ygrave" unicode="&#x1ef2;" horiz-adv-x="644" 
d="M223 0v313l-217 387h223l93 -211l97 211h219l-217 -387v-313h-198zM355 878l65 -151h-155l-110 151h200z" />
    <glyph glyph-name="ygrave" unicode="&#x1ef3;" horiz-adv-x="579" 
d="M313 -179h-182l71 199l-196 508h208l76 -273l81 273h202zM318 725l65 -151h-155l-110 151h200z" />
    </font>
</defs>
</svg>
